<svg xmlns="http://www.w3.org/2000/svg" version="1.1" style="font-family:Lato, &#x27;Helvetica Neue&#x27;, Helvetica, Arial, &#x27;Liberation Sans&#x27;, sans-serif;font-size:18px;background-color:white;text-rendering:geometricPrecision;-webkit-font-smoothing:antialiased" width="850" height="600" viewBox="0 0 850 600"><defs><pattern id="noDataPattern" patternUnits="userSpaceOnUse" width="4" height="4" patternTransform="rotate(-45 2 2)"><path d="M -1,2 l 6,0" stroke="#ccc" stroke-width="0.7"></path></pattern></defs><rect class="background-fill" fill="white" width="850" height="600"></rect><g class="HeaderView"><g transform="translate(774, 15) scale(0.29)"><svg className="owidLog" width="210" height="120" viewBox="0 0 210 120" fill="none" xmlns="http://www.w3.org/2000/svg">
<g clip-path="url(#clip0)">
  <path d="M0 0h210v107.89H0V0z" fill="#002147" />
  <path
    d="M40.98 32.25c0 2.36-.38 4.53-1.12 6.51a14.26 14.26 0 0 1-8.1 8.4c-1.9.78-4.02 1.17-6.34 1.17-2.31 0-4.42-.39-6.33-1.17a14.31 14.31 0 0 1-8.08-8.4 18.29 18.29 0 0 1-1.12-6.51c0-2.36.38-4.53 1.12-6.5.75-1.97 1.8-3.67 3.17-5.1a14.32 14.32 0 0 1 4.9-3.34c1.92-.8 4.03-1.19 6.34-1.19 2.32 0 4.43.4 6.34 1.19 1.92.8 3.56 1.9 4.93 3.34a14.87 14.87 0 0 1 3.17 5.1 18.1 18.1 0 0 1 1.12 6.5zm-4.38 0c0-1.94-.26-3.68-.8-5.22a10.91 10.91 0 0 0-2.24-3.89 9.68 9.68 0 0 0-3.52-2.46 11.95 11.95 0 0 0-4.62-.86c-1.68 0-3.21.28-4.6.86a9.88 9.88 0 0 0-3.54 2.46 10.91 10.91 0 0 0-2.24 3.9c-.53 1.53-.8 3.27-.8 5.2 0 1.94.27 3.68.8 5.22a11.17 11.17 0 0 0 2.24 3.9 10.01 10.01 0 0 0 3.55 2.44c1.38.56 2.9.83 4.6.83s3.24-.27 4.61-.83a9.8 9.8 0 0 0 3.52-2.44 11.17 11.17 0 0 0 2.25-3.9c.53-1.54.8-3.28.8-5.21zm26.22-6.54V48H60.5c-.56 0-.9-.27-1.05-.81l-.31-2.4a12.45 12.45 0 0 1-3.26 2.6c-1.2.64-2.58.96-4.13.96-1.22 0-2.3-.2-3.24-.6a6.52 6.52 0 0 1-2.33-1.7 7.37 7.37 0 0 1-1.43-2.67c-.3-1.04-.46-2.2-.46-3.45V25.7h3.91v14.22c0 1.68.38 2.99 1.15 3.91.77.93 1.96 1.39 3.54 1.39 1.16 0 2.24-.27 3.23-.82a10.42 10.42 0 0 0 2.8-2.28V25.7h3.91zm8.61 4.47a9.94 9.94 0 0 1 2.6-3.56 5.64 5.64 0 0 1 3.76-1.3c.47 0 .92.05 1.34.15.44.1.83.27 1.17.49l-.3 2.92c-.09.37-.3.55-.66.55-.2 0-.5-.04-.9-.13a6.21 6.21 0 0 0-3.24.18 4.23 4.23 0 0 0-1.47.92c-.42.4-.81.9-1.17 1.5-.33.58-.64 1.26-.92 2.02V48H67.7V25.71h2.25c.42 0 .72.08.88.25.16.16.27.44.33.83l.26 3.39zm61.16-13.7L122.75 48h-3.82l-7.99-24.05a21.95 21.95 0 0 1-.42-1.58 38.36 38.36 0 0 1-.44 1.58L102.05 48h-3.83L88.4 16.47h3.54c.38 0 .7.1.95.29.26.2.43.43.5.73l6.52 21.9.28 1.28.29 1.46.3-1.46.38-1.27 7.41-21.91c.1-.25.26-.48.51-.69.27-.22.58-.33.95-.33h1.23c.38 0 .69.1.92.29a1.77 1.77 0 0 1 .53.73l7.4 21.9a28.4 28.4 0 0 1 .68 2.62 29.52 29.52 0 0 1 .52-2.61l6.54-21.91a1.31 1.31 0 0 1 .48-.7c.27-.21.58-.32.95-.32h3.32zm9.35 8.88c1.63 0 3.1.27 4.4.82a9.43 9.43 0 0 1 5.46 5.94c.5 1.4.74 2.98.74 4.73 0 1.76-.25 3.34-.74 4.75a9.43 9.43 0 0 1-5.46 5.92c-1.3.52-2.77.79-4.4.79-1.64 0-3.12-.27-4.44-.8a9.42 9.42 0 0 1-3.35-2.3c-.92-1-1.63-2.2-2.13-3.61-.49-1.41-.73-3-.73-4.75s.24-3.33.73-4.73c.5-1.43 1.2-2.64 2.13-3.63.93-1 2.04-1.77 3.35-2.31 1.32-.55 2.8-.82 4.44-.82zm0 19.89c2.2 0 3.84-.73 4.93-2.2 1.08-1.48 1.63-3.54 1.63-6.18 0-2.66-.55-4.72-1.63-6.2-1.09-1.49-2.73-2.23-4.93-2.23-1.12 0-2.09.2-2.93.57a5.71 5.71 0 0 0-2.06 1.65c-.55.72-.96 1.61-1.24 2.67-.26 1.04-.4 2.22-.4 3.54 0 2.64.55 4.7 1.64 6.18 1.1 1.47 2.76 2.2 4.99 2.2zm17.97-15.07a9.94 9.94 0 0 1 2.6-3.56 5.64 5.64 0 0 1 3.76-1.3c.47 0 .91.05 1.34.15.44.1.83.27 1.16.49l-.28 2.92c-.09.37-.31.55-.66.55-.2 0-.5-.04-.9-.13a6.2 6.2 0 0 0-3.24.18 4.23 4.23 0 0 0-1.47.92c-.43.4-.82.9-1.17 1.5a13.1 13.1 0 0 0-.92 2.02V48h-3.94V25.71h2.24c.43 0 .72.08.88.25.17.16.28.44.33.83l.27 3.39zm15.04-14.59V48h-3.92V15.6h3.92zm19.55 15.43a6.22 6.22 0 0 0-2.38-2.05 6.7 6.7 0 0 0-2.86-.6c-2.07 0-3.66.75-4.77 2.23-1.12 1.48-1.68 3.6-1.68 6.33 0 1.46.13 2.7.38 3.74a7.29 7.29 0 0 0 1.1 2.56 4.35 4.35 0 0 0 1.78 1.45c.7.3 1.5.46 2.4.46 1.29 0 2.41-.3 3.36-.88a9.6 9.6 0 0 0 2.67-2.49V31.02zm3.91-15.43V48h-2.33c-.56 0-.9-.27-1.06-.81l-.35-2.71a12.13 12.13 0 0 1-3.25 2.77 8.28 8.28 0 0 1-4.23 1.06 7.31 7.31 0 0 1-6.14-2.9c-.73-.96-1.3-2.15-1.69-3.57a18.35 18.35 0 0 1 .07-9.48 11.29 11.29 0 0 1 1.89-3.7 8.7 8.7 0 0 1 7.06-3.34 7.96 7.96 0 0 1 6.12 2.62V15.59h3.91zM46.61 70.71V93H42.7V70.71h3.91zm.84-7c0 .39-.08.75-.24 1.09-.15.32-.35.61-.62.88-.25.25-.55.44-.9.59a2.67 2.67 0 0 1-2.16 0 2.9 2.9 0 0 1-1.45-1.47 2.67 2.67 0 0 1 0-2.16c.15-.35.35-.65.6-.9.25-.27.53-.47.85-.62a2.67 2.67 0 0 1 2.16 0c.35.15.65.35.9.62.27.25.47.55.62.9.16.34.24.7.24 1.08zm7.97 10.24c.49-.54 1-1.04 1.54-1.48a9.85 9.85 0 0 1 3.66-1.84 8.96 8.96 0 0 1 5.43.35c.94.4 1.72.97 2.33 1.71.63.74 1.11 1.62 1.43 2.67.32 1.04.49 2.19.49 3.45V93h-3.94V78.81c0-1.69-.4-3-1.17-3.92-.76-.93-1.93-1.4-3.5-1.4-1.15 0-2.24.27-3.25.83-1 .56-1.92 1.31-2.77 2.27V93h-3.94V70.71h2.35c.56 0 .9.28 1.04.82l.3 2.42zm57.7 3.3c0 2.36-.37 4.5-1.11 6.44a14.3 14.3 0 0 1-3.17 4.98c-1.37 1.37-3 2.45-4.93 3.2-1.9.76-4.02 1.13-6.33 1.13H85.8V61.47h11.77c2.31 0 4.42.39 6.33 1.15a13.8 13.8 0 0 1 8.1 8.18 17.75 17.75 0 0 1 1.12 6.45zm-4.37 0c0-1.94-.26-3.67-.8-5.2a10.94 10.94 0 0 0-2.23-3.87 9.57 9.57 0 0 0-3.53-2.42 12.23 12.23 0 0 0-4.61-.83h-7.5v24.62h7.5c1.7 0 3.24-.28 4.61-.84a9.7 9.7 0 0 0 3.53-2.4 10.94 10.94 0 0 0 2.24-3.87c.53-1.53.8-3.26.8-5.2zm19.8 5.72c-1.8.06-3.34.2-4.62.44-1.26.22-2.3.51-3.1.88-.8.36-1.37.8-1.74 1.3-.35.5-.53 1.05-.53 1.67 0 .58.1 1.1.3 1.52a3 3 0 0 0 .76 1.05c.34.27.73.46 1.17.6a6.13 6.13 0 0 0 1.45.17 7.28 7.28 0 0 0 3.5-.81 11.95 11.95 0 0 0 2.82-2.2v-4.62zm-12.65-9.11a12.73 12.73 0 0 1 3.98-2.66c1.43-.59 3-.88 4.73-.88 1.25 0 2.36.2 3.33.61a6.81 6.81 0 0 1 3.94 4.38c.33 1.04.5 2.19.5 3.43V93h-1.74a1.8 1.8 0 0 1-.88-.18c-.2-.13-.36-.38-.48-.74l-.44-2.12-1.72 1.46a9.48 9.48 0 0 1-3.74 1.7c-.69.15-1.46.23-2.3.23-.87 0-1.69-.12-2.45-.35a5.34 5.34 0 0 1-3.34-2.93 6.64 6.64 0 0 1-.49-2.64c0-.88.25-1.72.73-2.53a6.33 6.33 0 0 1 2.35-2.17c1.09-.63 2.5-1.15 4.25-1.54 1.75-.41 3.89-.65 6.42-.7v-1.75c0-1.73-.37-3.03-1.12-3.91-.75-.9-1.84-1.34-3.28-1.34-.97 0-1.78.12-2.44.37-.64.23-1.2.5-1.7.81l-1.23.82c-.33.23-.67.35-1 .35-.27 0-.5-.07-.69-.2a2.1 2.1 0 0 1-.48-.53l-.7-1.25zm27.67 19.5c-1.76 0-3.12-.5-4.07-1.48-.94-.98-1.41-2.4-1.41-4.25V74h-2.68a.9.9 0 0 1-.6-.2c-.16-.14-.24-.36-.24-.66v-1.56l3.65-.46.9-6.89c.05-.22.14-.4.29-.52a.88.88 0 0 1 .62-.22H142v7.67h6.44V74H142v13.38c0 .94.22 1.63.68 2.09.45.45 1.04.68 1.76.68a3.21 3.21 0 0 0 1.85-.53l.55-.35c.16-.12.3-.18.41-.18.2 0 .4.13.55.38l1.15 1.87a7.45 7.45 0 0 1-2.44 1.5 8.53 8.53 0 0 1-2.95.52zm19.68-10.4c-1.8.07-3.34.21-4.62.45-1.26.22-2.3.51-3.1.88-.8.36-1.37.8-1.74 1.3-.35.5-.53 1.05-.53 1.67 0 .58.1 1.1.3 1.52a2.9 2.9 0 0 0 .76 1.05c.34.27.73.46 1.17.6a6.13 6.13 0 0 0 1.45.17 7.3 7.3 0 0 0 3.5-.81 12.04 12.04 0 0 0 2.82-2.2v-4.62zm-12.65-9.1a12.72 12.72 0 0 1 3.99-2.66c1.42-.59 3-.88 4.72-.88 1.25 0 2.36.2 3.33.61a6.81 6.81 0 0 1 3.94 4.38c.33 1.04.5 2.19.5 3.43V93h-1.74a1.8 1.8 0 0 1-.88-.18c-.2-.13-.36-.38-.48-.74l-.44-2.12-1.72 1.46a9.48 9.48 0 0 1-3.74 1.7c-.69.15-1.46.23-2.3.23-.87 0-1.69-.12-2.45-.35a5.33 5.33 0 0 1-3.34-2.93 6.62 6.62 0 0 1-.49-2.64c0-.88.25-1.72.73-2.53a6.33 6.33 0 0 1 2.35-2.17c1.09-.63 2.5-1.15 4.25-1.54 1.74-.41 3.89-.65 6.42-.7v-1.75c0-1.73-.37-3.03-1.12-3.91-.75-.9-1.84-1.34-3.28-1.34-.97 0-1.78.12-2.44.37-.64.23-1.2.5-1.7.81l-1.22.82c-.34.23-.68.35-1.02.35-.26 0-.49-.07-.68-.2a1.88 1.88 0 0 1-.48-.53l-.7-1.25zM40.98 32.25c0 2.36-.38 4.53-1.12 6.51a14.26 14.26 0 0 1-8.1 8.4c-1.9.78-4.02 1.17-6.34 1.17-2.31 0-4.42-.39-6.33-1.17a14.31 14.31 0 0 1-8.08-8.4 18.29 18.29 0 0 1-1.12-6.51c0-2.36.38-4.53 1.12-6.5.75-1.97 1.8-3.67 3.17-5.1a14.32 14.32 0 0 1 4.9-3.34c1.92-.8 4.03-1.19 6.34-1.19 2.32 0 4.43.4 6.34 1.19 1.92.8 3.56 1.9 4.93 3.34a14.87 14.87 0 0 1 3.17 5.1 18.1 18.1 0 0 1 1.12 6.5zm-4.38 0c0-1.94-.26-3.68-.8-5.22a10.91 10.91 0 0 0-2.24-3.89 9.68 9.68 0 0 0-3.52-2.46 11.95 11.95 0 0 0-4.62-.86c-1.68 0-3.21.28-4.6.86a9.88 9.88 0 0 0-3.54 2.46 10.91 10.91 0 0 0-2.24 3.9c-.53 1.53-.8 3.27-.8 5.2 0 1.94.27 3.68.8 5.22a11.17 11.17 0 0 0 2.24 3.9 10.01 10.01 0 0 0 3.55 2.44c1.38.56 2.9.83 4.6.83s3.24-.27 4.61-.83a9.8 9.8 0 0 0 3.52-2.44 11.17 11.17 0 0 0 2.25-3.9c.53-1.54.8-3.28.8-5.21zm26.22-6.54V48H60.5c-.56 0-.9-.27-1.05-.81l-.31-2.4a12.45 12.45 0 0 1-3.26 2.6c-1.2.64-2.58.96-4.13.96-1.22 0-2.3-.2-3.24-.6a6.52 6.52 0 0 1-2.33-1.7 7.37 7.37 0 0 1-1.43-2.67c-.3-1.04-.46-2.2-.46-3.45V25.7h3.91v14.22c0 1.68.38 2.99 1.15 3.91.77.93 1.96 1.39 3.54 1.39 1.16 0 2.24-.27 3.23-.82a10.42 10.42 0 0 0 2.8-2.28V25.7h3.91zm8.61 4.47a9.94 9.94 0 0 1 2.6-3.56 5.64 5.64 0 0 1 3.76-1.3c.47 0 .92.05 1.34.15.44.1.83.27 1.17.49l-.3 2.92c-.09.37-.3.55-.66.55-.2 0-.5-.04-.9-.13a6.21 6.21 0 0 0-3.24.18 4.23 4.23 0 0 0-1.47.92c-.42.4-.81.9-1.17 1.5-.33.58-.64 1.26-.92 2.02V48H67.7V25.71h2.25c.42 0 .72.08.88.25.16.16.27.44.33.83l.26 3.39zm61.16-13.7L122.75 48h-3.82l-7.99-24.05a21.95 21.95 0 0 1-.42-1.58 38.36 38.36 0 0 1-.44 1.58L102.05 48h-3.83L88.4 16.47h3.54c.38 0 .7.1.95.29.26.2.43.43.5.73l6.52 21.9.28 1.28.29 1.46.3-1.46.38-1.27 7.41-21.91c.1-.25.26-.48.51-.69.27-.22.58-.33.95-.33h1.23c.38 0 .69.1.92.29a1.77 1.77 0 0 1 .53.73l7.4 21.9a28.4 28.4 0 0 1 .68 2.62 29.52 29.52 0 0 1 .52-2.61l6.54-21.91a1.31 1.31 0 0 1 .48-.7c.27-.21.58-.32.95-.32h3.32zm9.35 8.88c1.63 0 3.1.27 4.4.82a9.43 9.43 0 0 1 5.46 5.94c.5 1.4.74 2.98.74 4.73 0 1.76-.25 3.34-.74 4.75a9.43 9.43 0 0 1-5.46 5.92c-1.3.52-2.77.79-4.4.79-1.64 0-3.12-.27-4.44-.8a9.42 9.42 0 0 1-3.35-2.3c-.92-1-1.63-2.2-2.13-3.61-.49-1.41-.73-3-.73-4.75s.24-3.33.73-4.73c.5-1.43 1.2-2.64 2.13-3.63.93-1 2.04-1.77 3.35-2.31 1.32-.55 2.8-.82 4.44-.82zm0 19.89c2.2 0 3.84-.73 4.93-2.2 1.08-1.48 1.63-3.54 1.63-6.18 0-2.66-.55-4.72-1.63-6.2-1.09-1.49-2.73-2.23-4.93-2.23-1.12 0-2.09.2-2.93.57a5.71 5.71 0 0 0-2.06 1.65c-.55.72-.96 1.61-1.24 2.67-.26 1.04-.4 2.22-.4 3.54 0 2.64.55 4.7 1.64 6.18 1.1 1.47 2.76 2.2 4.99 2.2zm17.97-15.07a9.94 9.94 0 0 1 2.6-3.56 5.64 5.64 0 0 1 3.76-1.3c.47 0 .91.05 1.34.15.44.1.83.27 1.16.49l-.28 2.92c-.09.37-.31.55-.66.55-.2 0-.5-.04-.9-.13a6.2 6.2 0 0 0-3.24.18 4.23 4.23 0 0 0-1.47.92c-.43.4-.82.9-1.17 1.5a13.1 13.1 0 0 0-.92 2.02V48h-3.94V25.71h2.24c.43 0 .72.08.88.25.17.16.28.44.33.83l.27 3.39zm15.04-14.59V48h-3.92V15.6h3.92zm19.55 15.43a6.22 6.22 0 0 0-2.38-2.05 6.7 6.7 0 0 0-2.86-.6c-2.07 0-3.66.75-4.77 2.23-1.12 1.48-1.68 3.6-1.68 6.33 0 1.46.13 2.7.38 3.74a7.29 7.29 0 0 0 1.1 2.56 4.35 4.35 0 0 0 1.78 1.45c.7.3 1.5.46 2.4.46 1.29 0 2.41-.3 3.36-.88a9.6 9.6 0 0 0 2.67-2.49V31.02zm3.91-15.43V48h-2.33c-.56 0-.9-.27-1.06-.81l-.35-2.71a12.13 12.13 0 0 1-3.25 2.77 8.28 8.28 0 0 1-4.23 1.06 7.31 7.31 0 0 1-6.14-2.9c-.73-.96-1.3-2.15-1.69-3.57a18.35 18.35 0 0 1 .07-9.48 11.29 11.29 0 0 1 1.89-3.7 8.7 8.7 0 0 1 7.06-3.34 7.96 7.96 0 0 1 6.12 2.62V15.59h3.91zM46.61 70.71V93H42.7V70.71h3.91zm.84-7c0 .39-.08.75-.24 1.09-.15.32-.35.61-.62.88-.25.25-.55.44-.9.59a2.67 2.67 0 0 1-2.16 0 2.9 2.9 0 0 1-1.45-1.47 2.67 2.67 0 0 1 0-2.16c.15-.35.35-.65.6-.9.25-.27.53-.47.85-.62a2.67 2.67 0 0 1 2.16 0c.35.15.65.35.9.62.27.25.47.55.62.9.16.34.24.7.24 1.08zm7.97 10.24c.49-.54 1-1.04 1.54-1.48a9.85 9.85 0 0 1 3.66-1.84 8.96 8.96 0 0 1 5.43.35c.94.4 1.72.97 2.33 1.71.63.74 1.11 1.62 1.43 2.67.32 1.04.49 2.19.49 3.45V93h-3.94V78.81c0-1.69-.4-3-1.17-3.92-.76-.93-1.93-1.4-3.5-1.4-1.15 0-2.24.27-3.25.83-1 .56-1.92 1.31-2.77 2.27V93h-3.94V70.71h2.35c.56 0 .9.28 1.04.82l.3 2.42zm57.7 3.3c0 2.36-.37 4.5-1.11 6.44a14.3 14.3 0 0 1-3.17 4.98c-1.37 1.37-3 2.45-4.93 3.2-1.9.76-4.02 1.13-6.33 1.13H85.8V61.47h11.77c2.31 0 4.42.39 6.33 1.15a13.8 13.8 0 0 1 8.1 8.18 17.75 17.75 0 0 1 1.12 6.45zm-4.37 0c0-1.94-.26-3.67-.8-5.2a10.94 10.94 0 0 0-2.23-3.87 9.57 9.57 0 0 0-3.53-2.42 12.23 12.23 0 0 0-4.61-.83h-7.5v24.62h7.5c1.7 0 3.24-.28 4.61-.84a9.7 9.7 0 0 0 3.53-2.4 10.94 10.94 0 0 0 2.24-3.87c.53-1.53.8-3.26.8-5.2zm19.8 5.72c-1.8.06-3.34.2-4.62.44-1.26.22-2.3.51-3.1.88-.8.36-1.37.8-1.74 1.3-.35.5-.53 1.05-.53 1.67 0 .58.1 1.1.3 1.52a3 3 0 0 0 .76 1.05c.34.27.73.46 1.17.6a6.13 6.13 0 0 0 1.45.17 7.28 7.28 0 0 0 3.5-.81 11.95 11.95 0 0 0 2.82-2.2v-4.62zm-12.65-9.11a12.73 12.73 0 0 1 3.98-2.66c1.43-.59 3-.88 4.73-.88 1.25 0 2.36.2 3.33.61a6.81 6.81 0 0 1 3.94 4.38c.33 1.04.5 2.19.5 3.43V93h-1.74a1.8 1.8 0 0 1-.88-.18c-.2-.13-.36-.38-.48-.74l-.44-2.12-1.72 1.46a9.48 9.48 0 0 1-3.74 1.7c-.69.15-1.46.23-2.3.23-.87 0-1.69-.12-2.45-.35a5.34 5.34 0 0 1-3.34-2.93 6.64 6.64 0 0 1-.49-2.64c0-.88.25-1.72.73-2.53a6.33 6.33 0 0 1 2.35-2.17c1.09-.63 2.5-1.15 4.25-1.54 1.75-.41 3.89-.65 6.42-.7v-1.75c0-1.73-.37-3.03-1.12-3.91-.75-.9-1.84-1.34-3.28-1.34-.97 0-1.78.12-2.44.37-.64.23-1.2.5-1.7.81l-1.23.82c-.33.23-.67.35-1 .35-.27 0-.5-.07-.69-.2a2.1 2.1 0 0 1-.48-.53l-.7-1.25zm27.67 19.5c-1.76 0-3.12-.5-4.07-1.48-.94-.98-1.41-2.4-1.41-4.25V74h-2.68a.9.9 0 0 1-.6-.2c-.16-.14-.24-.36-.24-.66v-1.56l3.65-.46.9-6.89c.05-.22.14-.4.29-.52a.88.88 0 0 1 .62-.22H142v7.67h6.44V74H142v13.38c0 .94.22 1.63.68 2.09.45.45 1.04.68 1.76.68a3.21 3.21 0 0 0 1.85-.53l.55-.35c.16-.12.3-.18.41-.18.2 0 .4.13.55.38l1.15 1.87a7.45 7.45 0 0 1-2.44 1.5 8.53 8.53 0 0 1-2.95.52zm19.68-10.4c-1.8.07-3.34.21-4.62.45-1.26.22-2.3.51-3.1.88-.8.36-1.37.8-1.74 1.3-.35.5-.53 1.05-.53 1.67 0 .58.1 1.1.3 1.52a2.9 2.9 0 0 0 .76 1.05c.34.27.73.46 1.17.6a6.13 6.13 0 0 0 1.45.17 7.3 7.3 0 0 0 3.5-.81 12.04 12.04 0 0 0 2.82-2.2v-4.62zm-12.65-9.1a12.72 12.72 0 0 1 3.99-2.66c1.42-.59 3-.88 4.72-.88 1.25 0 2.36.2 3.33.61a6.81 6.81 0 0 1 3.94 4.38c.33 1.04.5 2.19.5 3.43V93h-1.74a1.8 1.8 0 0 1-.88-.18c-.2-.13-.36-.38-.48-.74l-.44-2.12-1.72 1.46a9.48 9.48 0 0 1-3.74 1.7c-.69.15-1.46.23-2.3.23-.87 0-1.69-.12-2.45-.35a5.33 5.33 0 0 1-3.34-2.93 6.62 6.62 0 0 1-.49-2.64c0-.88.25-1.72.73-2.53a6.33 6.33 0 0 1 2.35-2.17c1.09-.63 2.5-1.15 4.25-1.54 1.74-.41 3.89-.65 6.42-.7v-1.75c0-1.73-.37-3.03-1.12-3.91-.75-.9-1.84-1.34-3.28-1.34-.97 0-1.78.12-2.44.37-.64.23-1.2.5-1.7.81l-1.22.82c-.34.23-.68.35-1.02.35-.26 0-.49-.07-.68-.2a1.88 1.88 0 0 1-.48-.53l-.7-1.25zM40.98 32.25c0 2.36-.38 4.53-1.12 6.51a14.26 14.26 0 0 1-8.1 8.4c-1.9.78-4.02 1.17-6.34 1.17-2.31 0-4.42-.39-6.33-1.17a14.31 14.31 0 0 1-8.08-8.4 18.29 18.29 0 0 1-1.12-6.51c0-2.36.38-4.53 1.12-6.5.75-1.97 1.8-3.67 3.17-5.1a14.32 14.32 0 0 1 4.9-3.34c1.92-.8 4.03-1.19 6.34-1.19 2.32 0 4.43.4 6.34 1.19 1.92.8 3.56 1.9 4.93 3.34a14.87 14.87 0 0 1 3.17 5.1 18.1 18.1 0 0 1 1.12 6.5zm-4.38 0c0-1.94-.26-3.68-.8-5.22a10.91 10.91 0 0 0-2.24-3.89 9.68 9.68 0 0 0-3.52-2.46 11.95 11.95 0 0 0-4.62-.86c-1.68 0-3.21.28-4.6.86a9.88 9.88 0 0 0-3.54 2.46 10.91 10.91 0 0 0-2.24 3.9c-.53 1.53-.8 3.27-.8 5.2 0 1.94.27 3.68.8 5.22a11.17 11.17 0 0 0 2.24 3.9 10.01 10.01 0 0 0 3.55 2.44c1.38.56 2.9.83 4.6.83s3.24-.27 4.61-.83a9.8 9.8 0 0 0 3.52-2.44 11.17 11.17 0 0 0 2.25-3.9c.53-1.54.8-3.28.8-5.21zm26.22-6.54V48H60.5c-.56 0-.9-.27-1.05-.81l-.31-2.4a12.45 12.45 0 0 1-3.26 2.6c-1.2.64-2.58.96-4.13.96-1.22 0-2.3-.2-3.24-.6a6.52 6.52 0 0 1-2.33-1.7 7.37 7.37 0 0 1-1.43-2.67c-.3-1.04-.46-2.2-.46-3.45V25.7h3.91v14.22c0 1.68.38 2.99 1.15 3.91.77.93 1.96 1.39 3.54 1.39 1.16 0 2.24-.27 3.23-.82a10.42 10.42 0 0 0 2.8-2.28V25.7h3.91zm8.61 4.47a9.94 9.94 0 0 1 2.6-3.56 5.64 5.64 0 0 1 3.76-1.3c.47 0 .92.05 1.34.15.44.1.83.27 1.17.49l-.3 2.92c-.09.37-.3.55-.66.55-.2 0-.5-.04-.9-.13a6.21 6.21 0 0 0-3.24.18 4.23 4.23 0 0 0-1.47.92c-.42.4-.81.9-1.17 1.5-.33.58-.64 1.26-.92 2.02V48H67.7V25.71h2.25c.42 0 .72.08.88.25.16.16.27.44.33.83l.26 3.39zm61.16-13.7L122.75 48h-3.82l-7.99-24.05a21.95 21.95 0 0 1-.42-1.58 38.36 38.36 0 0 1-.44 1.58L102.05 48h-3.83L88.4 16.47h3.54c.38 0 .7.1.95.29.26.2.43.43.5.73l6.52 21.9.28 1.28.29 1.46.3-1.46.38-1.27 7.41-21.91c.1-.25.26-.48.51-.69.27-.22.58-.33.95-.33h1.23c.38 0 .69.1.92.29a1.77 1.77 0 0 1 .53.73l7.4 21.9a28.4 28.4 0 0 1 .68 2.62 29.52 29.52 0 0 1 .52-2.61l6.54-21.91a1.31 1.31 0 0 1 .48-.7c.27-.21.58-.32.95-.32h3.32zm9.35 8.88c1.63 0 3.1.27 4.4.82a9.43 9.43 0 0 1 5.46 5.94c.5 1.4.74 2.98.74 4.73 0 1.76-.25 3.34-.74 4.75a9.43 9.43 0 0 1-5.46 5.92c-1.3.52-2.77.79-4.4.79-1.64 0-3.12-.27-4.44-.8a9.42 9.42 0 0 1-3.35-2.3c-.92-1-1.63-2.2-2.13-3.61-.49-1.41-.73-3-.73-4.75s.24-3.33.73-4.73c.5-1.43 1.2-2.64 2.13-3.63.93-1 2.04-1.77 3.35-2.31 1.32-.55 2.8-.82 4.44-.82zm0 19.89c2.2 0 3.84-.73 4.93-2.2 1.08-1.48 1.63-3.54 1.63-6.18 0-2.66-.55-4.72-1.63-6.2-1.09-1.49-2.73-2.23-4.93-2.23-1.12 0-2.09.2-2.93.57a5.71 5.71 0 0 0-2.06 1.65c-.55.72-.96 1.61-1.24 2.67-.26 1.04-.4 2.22-.4 3.54 0 2.64.55 4.7 1.64 6.18 1.1 1.47 2.76 2.2 4.99 2.2zm17.97-15.07a9.94 9.94 0 0 1 2.6-3.56 5.64 5.64 0 0 1 3.76-1.3c.47 0 .91.05 1.34.15.44.1.83.27 1.16.49l-.28 2.92c-.09.37-.31.55-.66.55-.2 0-.5-.04-.9-.13a6.2 6.2 0 0 0-3.24.18 4.23 4.23 0 0 0-1.47.92c-.43.4-.82.9-1.17 1.5a13.1 13.1 0 0 0-.92 2.02V48h-3.94V25.71h2.24c.43 0 .72.08.88.25.17.16.28.44.33.83l.27 3.39zm15.04-14.59V48h-3.92V15.6h3.92zm19.55 15.43a6.22 6.22 0 0 0-2.38-2.05 6.7 6.7 0 0 0-2.86-.6c-2.07 0-3.66.75-4.77 2.23-1.12 1.48-1.68 3.6-1.68 6.33 0 1.46.13 2.7.38 3.74a7.29 7.29 0 0 0 1.1 2.56 4.35 4.35 0 0 0 1.78 1.45c.7.3 1.5.46 2.4.46 1.29 0 2.41-.3 3.36-.88a9.6 9.6 0 0 0 2.67-2.49V31.02zm3.91-15.43V48h-2.33c-.56 0-.9-.27-1.06-.81l-.35-2.71a12.13 12.13 0 0 1-3.25 2.77 8.28 8.28 0 0 1-4.23 1.06 7.31 7.31 0 0 1-6.14-2.9c-.73-.96-1.3-2.15-1.69-3.57a18.35 18.35 0 0 1 .07-9.48 11.29 11.29 0 0 1 1.89-3.7 8.7 8.7 0 0 1 7.06-3.34 7.96 7.96 0 0 1 6.12 2.62V15.59h3.91zM46.61 70.71V93H42.7V70.71h3.91zm.84-7c0 .39-.08.75-.24 1.09-.15.32-.35.61-.62.88-.25.25-.55.44-.9.59a2.67 2.67 0 0 1-2.16 0 2.9 2.9 0 0 1-1.45-1.47 2.67 2.67 0 0 1 0-2.16c.15-.35.35-.65.6-.9.25-.27.53-.47.85-.62a2.67 2.67 0 0 1 2.16 0c.35.15.65.35.9.62.27.25.47.55.62.9.16.34.24.7.24 1.08zm7.97 10.24c.49-.54 1-1.04 1.54-1.48a9.85 9.85 0 0 1 3.66-1.84 8.96 8.96 0 0 1 5.43.35c.94.4 1.72.97 2.33 1.71.63.74 1.11 1.62 1.43 2.67.32 1.04.49 2.19.49 3.45V93h-3.94V78.81c0-1.69-.4-3-1.17-3.92-.76-.93-1.93-1.4-3.5-1.4-1.15 0-2.24.27-3.25.83-1 .56-1.92 1.31-2.77 2.27V93h-3.94V70.71h2.35c.56 0 .9.28 1.04.82l.3 2.42zm57.7 3.3c0 2.36-.37 4.5-1.11 6.44a14.3 14.3 0 0 1-3.17 4.98c-1.37 1.37-3 2.45-4.93 3.2-1.9.76-4.02 1.13-6.33 1.13H85.8V61.47h11.77c2.31 0 4.42.39 6.33 1.15a13.8 13.8 0 0 1 8.1 8.18 17.75 17.75 0 0 1 1.12 6.45zm-4.37 0c0-1.94-.26-3.67-.8-5.2a10.94 10.94 0 0 0-2.23-3.87 9.57 9.57 0 0 0-3.53-2.42 12.23 12.23 0 0 0-4.61-.83h-7.5v24.62h7.5c1.7 0 3.24-.28 4.61-.84a9.7 9.7 0 0 0 3.53-2.4 10.94 10.94 0 0 0 2.24-3.87c.53-1.53.8-3.26.8-5.2zm19.8 5.72c-1.8.06-3.34.2-4.62.44-1.26.22-2.3.51-3.1.88-.8.36-1.37.8-1.74 1.3-.35.5-.53 1.05-.53 1.67 0 .58.1 1.1.3 1.52a3 3 0 0 0 .76 1.05c.34.27.73.46 1.17.6a6.13 6.13 0 0 0 1.45.17 7.28 7.28 0 0 0 3.5-.81 11.95 11.95 0 0 0 2.82-2.2v-4.62zm-12.65-9.11a12.73 12.73 0 0 1 3.98-2.66c1.43-.59 3-.88 4.73-.88 1.25 0 2.36.2 3.33.61a6.81 6.81 0 0 1 3.94 4.38c.33 1.04.5 2.19.5 3.43V93h-1.74a1.8 1.8 0 0 1-.88-.18c-.2-.13-.36-.38-.48-.74l-.44-2.12-1.72 1.46a9.48 9.48 0 0 1-3.74 1.7c-.69.15-1.46.23-2.3.23-.87 0-1.69-.12-2.45-.35a5.34 5.34 0 0 1-3.34-2.93 6.64 6.64 0 0 1-.49-2.64c0-.88.25-1.72.73-2.53a6.33 6.33 0 0 1 2.35-2.17c1.09-.63 2.5-1.15 4.25-1.54 1.75-.41 3.89-.65 6.42-.7v-1.75c0-1.73-.37-3.03-1.12-3.91-.75-.9-1.84-1.34-3.28-1.34-.97 0-1.78.12-2.44.37-.64.23-1.2.5-1.7.81l-1.23.82c-.33.23-.67.35-1 .35-.27 0-.5-.07-.69-.2a2.1 2.1 0 0 1-.48-.53l-.7-1.25zm27.67 19.5c-1.76 0-3.12-.5-4.07-1.48-.94-.98-1.41-2.4-1.41-4.25V74h-2.68a.9.9 0 0 1-.6-.2c-.16-.14-.24-.36-.24-.66v-1.56l3.65-.46.9-6.89c.05-.22.14-.4.29-.52a.88.88 0 0 1 .62-.22H142v7.67h6.44V74H142v13.38c0 .94.22 1.63.68 2.09.45.45 1.04.68 1.76.68a3.21 3.21 0 0 0 1.85-.53l.55-.35c.16-.12.3-.18.41-.18.2 0 .4.13.55.38l1.15 1.87a7.45 7.45 0 0 1-2.44 1.5 8.53 8.53 0 0 1-2.95.52zm19.68-10.4c-1.8.07-3.34.21-4.62.45-1.26.22-2.3.51-3.1.88-.8.36-1.37.8-1.74 1.3-.35.5-.53 1.05-.53 1.67 0 .58.1 1.1.3 1.52a2.9 2.9 0 0 0 .76 1.05c.34.27.73.46 1.17.6a6.13 6.13 0 0 0 1.45.17 7.3 7.3 0 0 0 3.5-.81 12.04 12.04 0 0 0 2.82-2.2v-4.62zm-12.65-9.1a12.72 12.72 0 0 1 3.99-2.66c1.42-.59 3-.88 4.72-.88 1.25 0 2.36.2 3.33.61a6.81 6.81 0 0 1 3.94 4.38c.33 1.04.5 2.19.5 3.43V93h-1.74a1.8 1.8 0 0 1-.88-.18c-.2-.13-.36-.38-.48-.74l-.44-2.12-1.72 1.46a9.48 9.48 0 0 1-3.74 1.7c-.69.15-1.46.23-2.3.23-.87 0-1.69-.12-2.45-.35a5.33 5.33 0 0 1-3.34-2.93 6.62 6.62 0 0 1-.49-2.64c0-.88.25-1.72.73-2.53a6.33 6.33 0 0 1 2.35-2.17c1.09-.63 2.5-1.15 4.25-1.54 1.74-.41 3.89-.65 6.42-.7v-1.75c0-1.73-.37-3.03-1.12-3.91-.75-.9-1.84-1.34-3.28-1.34-.97 0-1.78.12-2.44.37-.64.23-1.2.5-1.7.81l-1.22.82c-.34.23-.68.35-1.02.35-.26 0-.49-.07-.68-.2a1.88 1.88 0 0 1-.48-.53l-.7-1.25z"
    fill="#fff"
  />
  <path fill="#D42B21" d="M0 106.79h210V120H0z" />
</g>
<defs>
  <clipPath id="clip0"><path fill="#fff" d="M0 0h210v120H0z" /></clipPath>
</defs>
</svg></g><a href="https://ourworldindata.org/grapher/biweekly-confirmed-covid-19-cases?tab=chart&amp;country=~USA" style="font-family:&#x27;Playfair Display&#x27;, Georgia, &#x27;Times New Roman&#x27;, &#x27;Liberation Serif&#x27;, serif" target="_blank" rel="noopener"><text font-size="23.40" x="15.0" y="35.4" fill="#555"><tspan x="15" y="35.358">Biweekly confirmed COVID-19 cases, Mar 24, 2020 to May 24, 2023</tspan></text></a><text x="15.0" y="56.4" style="font-size:14.4px;line-height:1.2" fill="#666"><tspan x="15" y="56.4">Biweekly confirmed cases refer to the cumulative number of confirmed cases over the previous two weeks.</tspan></text></g><g class="LineChart"><defs><clipPath id="boundsClip-5"><rect x="78.526" y="65.68" width="840" height="490.46000000000004"></rect></clipPath></defs><rect x="15" y="75.68" width="820" height="470.46000000000004" fill="transparent"></rect><g class="DualAxisView"><g class="HorizontalAxis"><line x1="88.5" y1="524.94" x2="88.5" y2="529.94" stroke="#999"></line><line x1="718.6" y1="524.94" x2="718.6" y2="529.94" stroke="#999"></line><line x1="272.2" y1="524.94" x2="272.2" y2="529.94" stroke="#999"></line><line x1="381.2" y1="524.94" x2="381.2" y2="529.94" stroke="#999"></line><line x1="490.2" y1="524.94" x2="490.2" y2="529.94" stroke="#999"></line><text x="88.526" y="546.1400000000001" fill="#666" text-anchor="start" font-size="16.2">Mar 24, 2020</text><text x="718.595" y="546.1400000000001" fill="#666" text-anchor="end" font-size="16.2">May 24, 2023</text><text x="272.2" y="546.1400000000001" fill="#666" text-anchor="middle" font-size="16.2">Feb 24, 2021</text><text x="381.2" y="546.1400000000001" fill="#666" text-anchor="middle" font-size="16.2">Sep 12, 2021</text><text x="490.2" y="546.1400000000001" fill="#666" text-anchor="middle" font-size="16.2">Mar 31, 2022</text></g><g class="VerticalAxis"><text x="83.53" y="524.9" dy=".32em" text-anchor="end" fill="#666" font-size="16.2">0</text><text x="83.53" y="441.7" dy=".32em" text-anchor="end" fill="#666" font-size="16.2">2 million</text><text x="83.53" y="358.4" dy=".32em" text-anchor="end" fill="#666" font-size="16.2">4 million</text><text x="83.53" y="275.2" dy=".32em" text-anchor="end" fill="#666" font-size="16.2">6 million</text><text x="83.53" y="191.9" dy=".32em" text-anchor="end" fill="#666" font-size="16.2">8 million</text><text x="83.53" y="108.7" dy=".32em" text-anchor="end" fill="#666" font-size="16.2">10 million</text></g><g class="AxisGridLines horizontalLines"><line x1="88.53" y1="524.9" x2="718.60" y2="524.9" stroke="#999"></line><line x1="88.53" y1="441.7" x2="718.60" y2="441.7" stroke="#ddd" stroke-dasharray="3,2"></line><line x1="88.53" y1="358.4" x2="718.60" y2="358.4" stroke="#ddd" stroke-dasharray="3,2"></line><line x1="88.53" y1="275.2" x2="718.60" y2="275.2" stroke="#ddd" stroke-dasharray="3,2"></line><line x1="88.53" y1="191.9" x2="718.60" y2="191.9" stroke="#ddd" stroke-dasharray="3,2"></line><line x1="88.53" y1="108.7" x2="718.60" y2="108.7" stroke="#ddd" stroke-dasharray="3,2"></line></g></g><g clip-path="url(#boundsClip-5)"><g class="LineLabels" style="cursor:default"><g class="legendMark"><rect x="718.595" y="511.44000000000005" width="116.405" height="13.5" fill="#fff" opacity="0"></rect><text font-size="13.50" font-weight="400" x="722.6" y="523.2" fill="#c15065"><tspan x="722.595" y="523.1850000000001">United States</tspan></text></g></g><g class="Lines"><rect x="89" y="76" width="630" height="449" fill="rgba(255,255,255,0)" opacity="0"></rect><g><path stroke-linecap="round" stroke-linejoin="round" stroke="#ddd" d="M88.5 522.8L89.1 522.4L89.6 522L90.2 521.4L90.7 520.7L91.3 519.8L91.8 519L92.3 518L92.9 517.5L93.4 516.7L94 515.7L94.5 514.7L95.1 513.7L95.6 512.7L96.2 512L96.7 511.3L97.2 510.5L97.8 509.7L98.3 509L98.9 508.5L99.4 508L100 508L100.5 507.6L101.1 507.5L101.6 507.6L102.2 507.6L102.7 507.7L103.2 507.8L103.8 507.8L104.3 507.9L104.9 508.1L105.4 508.2L106 508.3L106.5 508.2L107.1 508.1L107.6 508.2L108.1 508.3L108.7 508.3L109.2 508.2L109.8 508.3L110.3 508.1L110.9 508.1L111.4 508.1L112 508.3L112.5 508.4L113.1 508.7L113.6 508.8L114.1 509.1L114.7 509.4L115.2 509.6L115.8 509.8L116.3 509.8L116.9 510.2L117.4 510L118 510.3L118.5 510.4L119 510.7L119.6 510.6L120.1 510.7L120.7 510.8L121.2 510.9L121.8 511L122.3 511.2L122.9 511.2L123.4 511.2L124 511.5L124.5 511.4L125 511.8L125.6 511.9L126.1 512L126.7 511.9L127.2 512.2L127.8 512.2L128.3 512.3L128.9 512.5L129.4 512.6L129.9 512.5L130.5 512.6L131 512.7L131.6 512.6L132.1 512.5L132.7 512.6L133.2 512.4L133.8 512.3L134.3 512.3L134.9 512.2L135.4 512L135.9 511.8L136.5 511.5L137 511.1L137.6 510.7L138.1 510.3L138.7 509.9L139.2 509.1L139.8 508.5L140.3 507.5L140.9 506.7L141.4 506L141.9 505.3L142.5 504.5L143 503.6L143.6 502.2L144.1 501.1L144.7 499.9L145.2 499.3L145.8 498.8L146.3 497.8L146.8 497.1L147.4 495.9L147.9 495.3L148.5 494.4L149 493.3L149.6 492.5L150.1 491.7L150.7 491L151.2 490.5L151.8 489.9L152.3 489.2L152.8 488.4L153.4 487.6L153.9 487.3L154.5 487L155 486.7L155.6 486.2L156.1 486.1L156.7 486.3L157.2 486.4L157.7 486.5L158.3 486.7L158.8 487L159.4 487.1L159.9 487.5L160.5 488L161 488.3L161.6 488.9L162.1 489.4L162.7 490.1L163.2 490.9L163.7 491.3L164.3 491.8L164.8 492.2L165.4 492.7L165.9 492.7L166.5 493.1L167 493.7L167.6 494.2L168.1 494.4L168.6 494.8L169.2 495L169.7 495.4L170.3 495.8L170.8 496.1L171.4 496.7L171.9 497.1L172.5 497.5L173 497.8L173.6 498.6L174.1 498.9L174.6 499.1L175.2 499.5L175.7 499.9L176.3 500.1L176.8 500.3L177.4 500.4L177.9 500.5L178.5 500.5L179 500.4L179.5 500.4L180.1 500.5L180.6 501L181.2 501.5L181.7 502L182.3 502.3L182.8 502.4L183.4 502.4L183.9 502.6L184.5 502.8L185 502.9L185.5 502.9L186.1 502.9L186.6 503L187.2 503L187.7 503L188.3 502.3L188.8 501.4L189.4 501.1L189.9 500.8L190.4 500.6L191 500.5L191.5 500.4L192.1 500.2L192.6 500.1L193.2 500L193.7 500L194.3 499.8L194.8 499.6L195.4 499.5L195.9 499.5L196.4 499.9L197 499.4L197.5 499L198.1 498.6L198.6 498.1L199.2 497.7L199.7 497.3L200.3 496.8L200.8 496.3L201.3 495.6L201.9 494.9L202.4 494.6L203 494.1L203.5 493.2L204.1 492.5L204.6 491.9L205.2 491.1L205.7 490.1L206.3 489.2L206.8 488.3L207.3 487.4L207.9 486.4L208.4 485.3L209 484.1L209.5 482.9L210.1 481.4L210.6 477.5L211.2 476.4L211.7 474.8L212.3 472.9L212.8 470.9L213.3 468.8L213.9 466.5L214.4 464.6L215 462.3L215.5 459.4L216.1 456.5L216.6 453.5L217.2 450.2L217.7 447.2L218.2 447.4L218.8 444.7L219.3 441.8L219.9 439.4L220.4 436.7L221 434.2L221.5 432.3L222.1 430.8L222.6 429.3L223.2 428L223.7 426.4L224.2 427.1L224.8 427.6L225.3 428.4L225.9 428.3L226.4 428.4L227 427.3L227.5 425.7L228.1 424.5L228.6 423.2L229.1 421.9L229.7 420.8L230.2 419.8L230.8 417.7L231.3 416.5L231.9 413.9L232.4 410.5L233 407.5L233.5 405.8L234.1 403.9L234.6 403.6L235.1 402.4L235.7 401.1L236.2 400.6L236.8 400.8L237.3 400.4L237.9 400.3L238.4 401.6L239 401.4L239.5 401.6L240 405.1L240.6 408L241.1 409.2L241.7 410.1L242.2 409.6L242.8 409.8L243.3 410.5L243.9 410.8L244.4 409.9L245 409.1L245.5 409.5L246 407.6L246.6 406.3L247.1 403.5L247.7 398.1L248.2 393.5L248.8 390.6L249.3 389.4L249.9 389.1L250.4 389.5L250.9 389.7L251.5 389.4L252 390L252.6 390.8L253.1 391.6L253.7 395.5L254.2 398.4L254.8 401.8L255.3 406.1L255.9 409.8L256.4 413.3L256.9 416.1L257.5 419.1L258 421.9L258.6 424.7L259.1 427.8L259.7 430.7L260.2 433.8L260.8 434.9L261.3 436.1L261.8 439.4L262.4 442.1L262.9 444.8L263.5 447.1L264 449.1L264.6 451.4L265.1 453.7L265.7 456.2L266.2 458.6L266.8 461.3L267.3 463.6L267.8 465.4L268.4 468.4L268.9 471.1L269.5 472.9L270 475.2L270.6 477.3L271.1 479.2L271.7 480.7L272.2 481.7L272.8 482.6L273.3 483.7L273.8 484.8L274.4 485.8L274.9 486.5L275.5 487.2L276 487.5L276.6 487.6L277.1 487.5L277.7 487.6L278.2 488L278.7 488.4L279.3 488.9L279.8 489.4L280.4 490.1L280.9 490.6L281.5 491.1L282 491.4L282.6 492.1L283.1 492.3L283.7 492.6L284.2 492.7L284.7 493L285.3 493.1L285.8 493.2L286.4 493.1L286.9 493.1L287.5 492.8L288 492.7L288.6 492.4L289.1 492.2L289.6 491.7L290.2 491.3L290.7 491L291.3 490.4L291.8 490L292.4 489.6L292.9 489.2L293.5 488.8L294 488.6L294.6 488.6L295.1 488.2L295.6 488L296.2 487.7L296.7 487.3L297.3 487.2L297.8 487L298.4 487L298.9 486.9L299.5 486.5L300 486.4L300.5 486.5L301.1 486.5L301.6 485.9L302.2 485.8L302.7 486.7L303.3 486.9L303.8 487.4L304.4 488L304.9 488.6L305.5 489.3L306 489.8L306.5 491L307.1 492L307.6 492.6L308.2 493.3L308.7 493.9L309.3 495.1L309.8 495.7L310.4 495.8L310.9 496.4L311.4 497.2L312 497.9L312.5 498.7L313.1 499.3L313.6 499.8L314.2 500.1L314.7 500.8L315.3 501.6L315.8 502.2L316.4 503.1L316.9 503.8L317.4 504.5L318 505L318.5 505.6L319.1 506.4L319.6 507L320.2 507.7L320.7 508.3L321.3 508.8L321.8 509.2L322.3 509.5L322.9 510L323.4 510.8L324 511.2L324.5 511.8L325.1 512.2L325.6 512.6L326.2 513.4L326.7 513.9L327.3 514.3L327.8 514.7L328.3 515L328.9 515.2L329.4 515.4L330 515.8L330.5 516L331.1 516.2L331.6 516.7L332.2 516.8L332.7 517L333.3 517L333.8 516.9L334.3 517L334.9 517.2L335.4 517.4L336 517.5L336.5 517.6L337.1 517.7L337.6 517.7L338.2 518L338.7 518L339.2 517.9L339.8 517.9L340.3 517.8L340.9 517.7L341.4 517.6L342 517.7L342.5 517.5L343.1 517.3L343.6 517.2L344.2 517.2L344.7 517.1L345.2 516.9L345.8 516.5L346.3 509.5L346.9 509L347.4 508.7L348 508.4L348.5 507.6L349.1 506.8L349.6 505.7L350.1 504.8L350.7 503.7L351.2 503L351.8 502.2L352.3 500.7L352.9 499.4L353.4 497.8L354 502.5L354.5 500.7L355.1 499.4L355.6 498.3L356.1 496.5L356.7 494.4L357.2 492.3L357.8 489.8L358.3 487.2L358.9 485.2L359.4 483.8L360 481.4L360.5 479L361 476.2L361.6 473.9L362.1 471.2L362.7 468.5L363.2 466.2L363.8 465.3L364.3 463.3L364.9 461L365.4 458.8L366 457.1L366.5 454.6L367 452.6L367.6 452.3L368.1 450.6L368.7 448.9L369.2 447L369.8 445.6L370.3 444.7L370.9 443.5L371.4 442.4L371.9 441.2L372.5 439.9L373 438.4L373.6 436.9L374.1 436.5L374.7 436.3L375.2 435L375.8 433.9L376.3 432.7L376.9 432.3L377.4 431.7L377.9 431.7L378.5 431.8L379 432L379.6 434L380.1 434.2L380.7 434.3L381.2 434.7L381.8 434.6L382.3 434.7L382.8 435.5L383.4 436.1L383.9 437.5L384.5 438.2L385 439.2L385.6 440L386.1 441.2L386.7 441.9L387.2 441.1L387.8 442.7L388.3 444.6L388.8 446.3L389.4 448.7L389.9 450.3L390.5 450.8L391 452.7L391.6 454.6L392.1 456.4L392.7 458L393.2 459.7L393.7 460.9L394.3 461.1L394.8 462.4L395.4 463L395.9 464.1L396.5 465.1L397 466.2L397.6 466.9L398.1 468.1L398.7 469.2L399.2 470L399.7 471.1L400.3 472.3L400.8 473.1L401.4 473.9L401.9 474.7L402.5 475.6L403 477.3L403.6 478.4L404.1 479.5L404.7 481L405.2 482.2L405.7 482L406.3 481.5L406.8 482L407.4 481.7L407.9 481.9L408.5 483L409 484L409.6 482.1L410.1 482.3L410.6 482.2L411.2 482.2L411.7 481.8L412.3 481.8L412.8 481.7L413.4 480.3L413.9 481.1L414.5 480.7L415 481.9L415.6 480.5L416.1 479.1L416.6 478.7L417.2 478.1L417.7 477.1L418.3 476L418.8 474.6L419.4 473.6L419.9 473.1L420.5 472.8L421 471.6L421.5 470.9L422.1 470.3L422.6 470.4L423.2 472.1L423.7 472.8L424.3 471.9L424.8 473.5L425.4 472.6L425.9 471.4L426.5 470.6L427 469L427.5 468.1L428.1 467.4L428.6 465.8L429.2 464.8L429.7 463.9L430.3 461.2L430.8 458.9L431.4 458.4L431.9 458.3L432.4 454.5L433 454.3L433.5 453.8L434.1 453L434.6 452.8L435.2 451.9L435.7 450L436.3 446.5L436.8 443.3L437.4 438.8L437.9 432.9L438.4 428.5L439 426.3L439.5 420L440.1 408.4L440.6 397.4L441.2 383.7L441.7 366.2L442.3 353L442.8 344.1L443.3 332.1L443.9 305.6L444.4 283.5L445 264.2L445.5 242.6L446.1 217.1L446.6 203.2L447.2 191.8L447.7 158.4L448.3 141.2L448.8 125.3L449.3 112.5L449.9 94.8L450.4 88L451 86.8L451.5 84.1L452.1 78.9L452.6 75.7L453.2 76.6L453.7 79.8L454.2 84.8L454.8 91.9L455.3 102.5L455.9 115.4L456.4 128.4L457 141.7L457.5 157.3L458.1 167.4L458.6 178.3L459.2 194.6L459.7 217.9L460.2 237.7L460.8 255.5L461.3 276.1L461.9 285.4L462.4 294.5L463 323.9L463.5 336.2L464.1 350.7L464.6 367.6L465.2 383L465.7 389.4L466.2 394L466.8 410.7L467.3 418.6L467.9 426.8L468.4 437.2L469 444.6L469.5 447.2L470.1 450L470.6 460.7L471.1 464.1L471.7 469.2L472.2 473L472.8 476.4L473.3 478.1L473.9 479.4L474.4 483.5L475 485.3L475.5 487.5L476.1 489.5L476.6 492L477.1 493.1L477.7 494.1L478.2 493.7L478.8 497.2L479.3 498.3L479.9 499.8L480.4 501.3L481 501.9L481.5 502.3L482 502.9L482.6 504.6L483.1 505.2L483.7 505.9L484.2 506.5L484.8 506.7L485.3 506.6L485.9 507.4L486.4 507.7L487 507.7L487.5 507.9L488 508.2L488.6 508.2L489.1 508.2L489.7 509.3L490.2 509.4L490.8 508.9L491.3 508.6L491.9 508.8L492.4 508.7L492.9 508.7L493.5 509.2L494 508.8L494.6 509L495.1 509L495.7 508.5L496.2 508.4L496.8 508.1L497.3 508L497.9 507.8L498.4 507.9L498.9 506.9L499.5 506.2L500 506L500.6 505.7L501.1 505.3L501.7 504.5L502.2 503.8L502.8 503.2L503.3 502.1L503.8 501.7L504.4 501.6L504.9 500.9L505.5 499.4L506 498.1L506.6 498.2L507.1 496.7L507.7 496.3L508.2 496L508.8 494.8L509.3 494L509.8 492.2L510.4 490.9L510.9 489.8L511.5 489.6L512 489.2L512.6 487.1L513.1 485.6L513.7 483.5L514.2 481.9L514.7 480.4L515.3 480.2L515.8 479.4L516.4 477L516.9 474.6L517.5 472.7L518 471.4L518.6 469.2L519.1 468.8L519.7 468.3L520.2 467.9L520.7 466.5L521.3 465.4L521.8 464.8L522.4 463.5L522.9 463.2L523.5 463.7L524 466.5L524.6 465.4L525.1 465.6L525.6 465.6L526.2 466L526.7 465.5L527.3 465.6L527.8 466.1L528.4 465.3L528.9 465.7L529.5 466L530 466L530.6 465.9L531.1 465.8L531.6 464.3L532.2 465L532.7 464.9L533.3 465.5L533.8 466.1L534.4 466.6L534.9 466.9L535.5 468.9L536 467.5L536.6 467.9L537.1 468.1L537.6 467.4L538.2 467.2L538.7 466.9L539.3 466.7L539.8 466L540.4 465.8L540.9 465.1L541.5 463.2L542 462.7L542.5 462.2L543.1 462.5L543.6 463.2L544.2 462.7L544.7 461.9L545.3 461.8L545.8 461.3L546.4 460.7L546.9 460L547.5 458.8L548 458.5L548.5 457.4L549.1 457L549.6 456.6L550.2 456.2L550.7 453.9L551.3 453.5L551.8 452.9L552.4 451.8L552.9 450.1L553.4 450.2L554 450.3L554.5 450.6L555.1 451.3L555.6 451.1L556.2 450.8L556.7 447.7L557.3 448.5L557.8 449.2L558.4 448.5L558.9 449.3L559.4 449.6L560 450.3L560.5 452.7L561.1 453.5L561.6 454.4L562.2 454.7L562.7 456L563.3 457L563.8 457.8L564.3 462.9L564.9 463.2L565.4 463.9L566 464.8L566.5 466.2L567.1 467.4L567.6 468.2L568.2 468.9L568.7 469.1L569.3 469.3L569.8 470L570.3 470.9L570.9 471.2L571.4 471.8L572 472.7L572.5 472.7L573.1 472.5L573.6 473.4L574.2 473.8L574.7 473.8L575.2 474.2L575.8 475.4L576.3 475.5L576.9 475.7L577.4 478.1L578 478L578.5 479.6L579.1 480.7L579.6 482.1L580.2 482.4L580.7 482.6L581.2 483.5L581.8 485.9L582.3 487.2L582.9 487.5L583.4 489.3L584 489.6L584.5 489.8L585.1 488.8L585.6 491.7L586.1 492L586.7 491.5L587.2 492.7L587.8 492.9L588.3 493.1L588.9 494L589.4 494.7L590 495.2L590.5 495.6L591.1 496.2L591.6 496.4L592.1 496.7L592.7 497.2L593.2 497.7L593.8 498.5L594.3 499.4L594.9 499.9L595.4 500.1L596 500.2L596.5 500.7L597.1 500.8L597.6 501.7L598.1 502.3L598.7 502.8L599.2 503.1L599.8 503.2L600.3 503.1L600.9 503.1L601.4 505.7L602 500.9L602.5 502.7L603 503.1L603.6 503.7L604.1 504.7L604.7 506.3L605.2 498.1L605.8 501.1L606.3 502.5L606.9 502.8L607.4 503.2L608 504.6L608.5 506.3L609 495.1L609.6 503.2L610.1 503.2L610.7 503.2L611.2 503.2L611.8 503.2L612.3 503.2L612.9 502L613.4 502L613.9 502L614.5 502L615 502L615.6 502L616.1 502L616.7 501.7L617.2 501.7L617.8 501.7L618.3 501.7L618.9 501.7L619.4 501.7L619.9 501.7L620.5 501L621 501L621.6 501L622.1 501L622.7 501L623.2 501L623.8 501L624.3 499.8L624.8 499.8L625.4 499.8L625.9 499.8L626.5 499.8L627 499.8L627.6 499.8L628.1 493.1L628.7 493.1L629.2 493.1L629.8 493.1L630.3 493.1L630.8 493.1L631.4 493.1L631.9 487.1L632.5 487.1L633 487.1L633.6 487.1L634.1 487.1L634.7 487.1L635.2 487.1L635.7 485.2L636.3 485.2L636.8 485.2L637.4 485.2L637.9 485.2L638.5 485.2L639 485.2L639.6 487.5L640.1 487.5L640.7 487.5L641.2 487.5L641.7 487.5L642.3 487.5L642.8 487.5L643.4 489L643.9 489L644.5 489L645 489L645.6 489L646.1 489L646.6 489L647.2 486.7L647.7 486.7L648.3 486.7L648.8 486.7L649.4 486.7L649.9 486.7L650.5 486.7L651 493.5L651.6 493.5L652.1 493.5L652.6 493.5L653.2 493.5L653.7 493.5L654.3 493.5L654.8 499.8L655.4 499.8L655.9 499.8L656.5 499.8L657 499.8L657.6 499.8L658.1 499.8L658.6 500.8L659.2 500.8L659.7 500.8L660.3 500.8L660.8 500.8L661.4 500.8L661.9 500.8L662.5 501.5L663 501.5L663.5 501.5L664.1 501.5L664.6 501.5L665.2 501.5L665.7 501.5L666.3 502.8L666.8 502.8L667.4 502.8L667.9 502.8L668.5 502.8L669 502.8L669.5 502.8L670.1 514.4L670.6 503.2L671.2 503.2L671.7 503.2L672.3 503.2L672.8 503.2L673.4 503.2L673.9 513.8L674.4 504.3L675 504.3L675.5 504.3L676.1 504.3L676.6 504.3L677.2 504.3L677.7 504.3L678.3 508.4L678.8 508.4L679.4 508.4L679.9 508.4L680.4 508.4L681 508.4L681.5 508.4L682.1 512.6L682.6 512.6L683.2 512.6L683.7 512.6L684.3 512.6L684.8 512.6L685.3 512.6L685.9 513.3L686.4 513.3L687 513.3L687.5 513.3L688.1 513.3L688.6 513.3L689.2 513.3L689.7 511.2L690.3 511.2L690.8 511.2L691.3 511.2L691.9 511.2L692.4 511.2L693 511.2L693.5 517.6L694.1 513.3L694.6 513.3L695.2 513.3L695.7 513.3L696.2 513.3L696.8 513.3L697.3 520.6L697.9 516.3L698.4 516.3L699 516.3L699.5 516.3L700.1 516.3L700.6 516.3L701.2 516.3L701.7 516.5L702.2 516.5L702.8 516.5L703.3 516.5L703.9 516.5L704.4 516.5L705 516.5L705.5 517.2L706.1 517.2L706.6 517.2L707.1 517.2L707.7 517.2L708.2 517.2L708.8 517.2L709.3 518.1L709.9 518.1L710.4 518.1L711 518.1L711.5 518.1L712.1 518.1L712.6 518.1L713.1 517.8L713.7 517.8L714.2 517.8L714.8 517.8L715.3 517.8L715.9 517.8L716.4 517.8L717 521.1L717.5 521.1L718 521.1L718.6 521.1" fill="none" stroke-width="1"></path></g><g><path fill="none" stroke-linecap="butt" stroke-linejoin="round" stroke="#fff" stroke-width="2.5" d="M88.5 522.8L89.1 522.4L89.6 522L90.2 521.4L90.7 520.7L91.3 519.8L91.8 519L92.3 518L92.9 517.5L93.4 516.7L94 515.7L94.5 514.7L95.1 513.7L95.6 512.7L96.2 512L96.7 511.3L97.2 510.5L97.8 509.7L98.3 509L98.9 508.5L99.4 508L100 508L100.5 507.6L101.1 507.5L101.6 507.6L102.2 507.6L102.7 507.7L103.2 507.8L103.8 507.8L104.3 507.9L104.9 508.1L105.4 508.2L106 508.3L106.5 508.2L107.1 508.1L107.6 508.2L108.1 508.3L108.7 508.3L109.2 508.2L109.8 508.3L110.3 508.1L110.9 508.1L111.4 508.1L112 508.3L112.5 508.4L113.1 508.7L113.6 508.8L114.1 509.1L114.7 509.4L115.2 509.6L115.8 509.8L116.3 509.8L116.9 510.2L117.4 510L118 510.3L118.5 510.4L119 510.7L119.6 510.6L120.1 510.7L120.7 510.8L121.2 510.9L121.8 511L122.3 511.2L122.9 511.2L123.4 511.2L124 511.5L124.5 511.4L125 511.8L125.6 511.9L126.1 512L126.7 511.9L127.2 512.2L127.8 512.2L128.3 512.3L128.9 512.5L129.4 512.6L129.9 512.5L130.5 512.6L131 512.7L131.6 512.6L132.1 512.5L132.7 512.6L133.2 512.4L133.8 512.3L134.3 512.3L134.9 512.2L135.4 512L135.9 511.8L136.5 511.5L137 511.1L137.6 510.7L138.1 510.3L138.7 509.9L139.2 509.1L139.8 508.5L140.3 507.5L140.9 506.7L141.4 506L141.9 505.3L142.5 504.5L143 503.6L143.6 502.2L144.1 501.1L144.7 499.9L145.2 499.3L145.8 498.8L146.3 497.8L146.8 497.1L147.4 495.9L147.9 495.3L148.5 494.4L149 493.3L149.6 492.5L150.1 491.7L150.7 491L151.2 490.5L151.8 489.9L152.3 489.2L152.8 488.4L153.4 487.6L153.9 487.3L154.5 487L155 486.7L155.6 486.2L156.1 486.1L156.7 486.3L157.2 486.4L157.7 486.5L158.3 486.7L158.8 487L159.4 487.1L159.9 487.5L160.5 488L161 488.3L161.6 488.9L162.1 489.4L162.7 490.1L163.2 490.9L163.7 491.3L164.3 491.8L164.8 492.2L165.4 492.7L165.9 492.7L166.5 493.1L167 493.7L167.6 494.2L168.1 494.4L168.6 494.8L169.2 495L169.7 495.4L170.3 495.8L170.8 496.1L171.4 496.7L171.9 497.1L172.5 497.5L173 497.8L173.6 498.6L174.1 498.9L174.6 499.1L175.2 499.5L175.7 499.9L176.3 500.1L176.8 500.3L177.4 500.4L177.9 500.5L178.5 500.5L179 500.4L179.5 500.4L180.1 500.5L180.6 501L181.2 501.5L181.7 502L182.3 502.3L182.8 502.4L183.4 502.4L183.9 502.6L184.5 502.8L185 502.9L185.5 502.9L186.1 502.9L186.6 503L187.2 503L187.7 503L188.3 502.3L188.8 501.4L189.4 501.1L189.9 500.8L190.4 500.6L191 500.5L191.5 500.4L192.1 500.2L192.6 500.1L193.2 500L193.7 500L194.3 499.8L194.8 499.6L195.4 499.5L195.9 499.5L196.4 499.9L197 499.4L197.5 499L198.1 498.6L198.6 498.1L199.2 497.7L199.7 497.3L200.3 496.8L200.8 496.3L201.3 495.6L201.9 494.9L202.4 494.6L203 494.1L203.5 493.2L204.1 492.5L204.6 491.9L205.2 491.1L205.7 490.1L206.3 489.2L206.8 488.3L207.3 487.4L207.9 486.4L208.4 485.3L209 484.1L209.5 482.9L210.1 481.4L210.6 477.5L211.2 476.4L211.7 474.8L212.3 472.9L212.8 470.9L213.3 468.8L213.9 466.5L214.4 464.6L215 462.3L215.5 459.4L216.1 456.5L216.6 453.5L217.2 450.2L217.7 447.2L218.2 447.4L218.8 444.7L219.3 441.8L219.9 439.4L220.4 436.7L221 434.2L221.5 432.3L222.1 430.8L222.6 429.3L223.2 428L223.7 426.4L224.2 427.1L224.8 427.6L225.3 428.4L225.9 428.3L226.4 428.4L227 427.3L227.5 425.7L228.1 424.5L228.6 423.2L229.1 421.9L229.7 420.8L230.2 419.8L230.8 417.7L231.3 416.5L231.9 413.9L232.4 410.5L233 407.5L233.5 405.8L234.1 403.9L234.6 403.6L235.1 402.4L235.7 401.1L236.2 400.6L236.8 400.8L237.3 400.4L237.9 400.3L238.4 401.6L239 401.4L239.5 401.6L240 405.1L240.6 408L241.1 409.2L241.7 410.1L242.2 409.6L242.8 409.8L243.3 410.5L243.9 410.8L244.4 409.9L245 409.1L245.5 409.5L246 407.6L246.6 406.3L247.1 403.5L247.7 398.1L248.2 393.5L248.8 390.6L249.3 389.4L249.9 389.1L250.4 389.5L250.9 389.7L251.5 389.4L252 390L252.6 390.8L253.1 391.6L253.7 395.5L254.2 398.4L254.8 401.8L255.3 406.1L255.9 409.8L256.4 413.3L256.9 416.1L257.5 419.1L258 421.9L258.6 424.7L259.1 427.8L259.7 430.7L260.2 433.8L260.8 434.9L261.3 436.1L261.8 439.4L262.4 442.1L262.9 444.8L263.5 447.1L264 449.1L264.6 451.4L265.1 453.7L265.7 456.2L266.2 458.6L266.8 461.3L267.3 463.6L267.8 465.4L268.4 468.4L268.9 471.1L269.5 472.9L270 475.2L270.6 477.3L271.1 479.2L271.7 480.7L272.2 481.7L272.8 482.6L273.3 483.7L273.8 484.8L274.4 485.8L274.9 486.5L275.5 487.2L276 487.5L276.6 487.6L277.1 487.5L277.7 487.6L278.2 488L278.7 488.4L279.3 488.9L279.8 489.4L280.4 490.1L280.9 490.6L281.5 491.1L282 491.4L282.6 492.1L283.1 492.3L283.7 492.6L284.2 492.7L284.7 493L285.3 493.1L285.8 493.2L286.4 493.1L286.9 493.1L287.5 492.8L288 492.7L288.6 492.4L289.1 492.2L289.6 491.7L290.2 491.3L290.7 491L291.3 490.4L291.8 490L292.4 489.6L292.9 489.2L293.5 488.8L294 488.6L294.6 488.6L295.1 488.2L295.6 488L296.2 487.7L296.7 487.3L297.3 487.2L297.8 487L298.4 487L298.9 486.9L299.5 486.5L300 486.4L300.5 486.5L301.1 486.5L301.6 485.9L302.2 485.8L302.7 486.7L303.3 486.9L303.8 487.4L304.4 488L304.9 488.6L305.5 489.3L306 489.8L306.5 491L307.1 492L307.6 492.6L308.2 493.3L308.7 493.9L309.3 495.1L309.8 495.7L310.4 495.8L310.9 496.4L311.4 497.2L312 497.9L312.5 498.7L313.1 499.3L313.6 499.8L314.2 500.1L314.7 500.8L315.3 501.6L315.8 502.2L316.4 503.1L316.9 503.8L317.4 504.5L318 505L318.5 505.6L319.1 506.4L319.6 507L320.2 507.7L320.7 508.3L321.3 508.8L321.8 509.2L322.3 509.5L322.9 510L323.4 510.8L324 511.2L324.5 511.8L325.1 512.2L325.6 512.6L326.2 513.4L326.7 513.9L327.3 514.3L327.8 514.7L328.3 515L328.9 515.2L329.4 515.4L330 515.8L330.5 516L331.1 516.2L331.6 516.7L332.2 516.8L332.7 517L333.3 517L333.8 516.9L334.3 517L334.9 517.2L335.4 517.4L336 517.5L336.5 517.6L337.1 517.7L337.6 517.7L338.2 518L338.7 518L339.2 517.9L339.8 517.9L340.3 517.8L340.9 517.7L341.4 517.6L342 517.7L342.5 517.5L343.1 517.3L343.6 517.2L344.2 517.2L344.7 517.1L345.2 516.9L345.8 516.5L346.3 509.5L346.9 509L347.4 508.7L348 508.4L348.5 507.6L349.1 506.8L349.6 505.7L350.1 504.8L350.7 503.7L351.2 503L351.8 502.2L352.3 500.7L352.9 499.4L353.4 497.8L354 502.5L354.5 500.7L355.1 499.4L355.6 498.3L356.1 496.5L356.7 494.4L357.2 492.3L357.8 489.8L358.3 487.2L358.9 485.2L359.4 483.8L360 481.4L360.5 479L361 476.2L361.6 473.9L362.1 471.2L362.7 468.5L363.2 466.2L363.8 465.3L364.3 463.3L364.9 461L365.4 458.8L366 457.1L366.5 454.6L367 452.6L367.6 452.3L368.1 450.6L368.7 448.9L369.2 447L369.8 445.6L370.3 444.7L370.9 443.5L371.4 442.4L371.9 441.2L372.5 439.9L373 438.4L373.6 436.9L374.1 436.5L374.7 436.3L375.2 435L375.8 433.9L376.3 432.7L376.9 432.3L377.4 431.7L377.9 431.7L378.5 431.8L379 432L379.6 434L380.1 434.2L380.7 434.3L381.2 434.7L381.8 434.6L382.3 434.7L382.8 435.5L383.4 436.1L383.9 437.5L384.5 438.2L385 439.2L385.6 440L386.1 441.2L386.7 441.9L387.2 441.1L387.8 442.7L388.3 444.6L388.8 446.3L389.4 448.7L389.9 450.3L390.5 450.8L391 452.7L391.6 454.6L392.1 456.4L392.7 458L393.2 459.7L393.7 460.9L394.3 461.1L394.8 462.4L395.4 463L395.9 464.1L396.5 465.1L397 466.2L397.6 466.9L398.1 468.1L398.7 469.2L399.2 470L399.7 471.1L400.3 472.3L400.8 473.1L401.4 473.9L401.9 474.7L402.5 475.6L403 477.3L403.6 478.4L404.1 479.5L404.7 481L405.2 482.2L405.7 482L406.3 481.5L406.8 482L407.4 481.7L407.9 481.9L408.5 483L409 484L409.6 482.1L410.1 482.3L410.6 482.2L411.2 482.2L411.7 481.8L412.3 481.8L412.8 481.7L413.4 480.3L413.9 481.1L414.5 480.7L415 481.9L415.6 480.5L416.1 479.1L416.6 478.7L417.2 478.1L417.7 477.1L418.3 476L418.8 474.6L419.4 473.6L419.9 473.1L420.5 472.8L421 471.6L421.5 470.9L422.1 470.3L422.6 470.4L423.2 472.1L423.7 472.8L424.3 471.9L424.8 473.5L425.4 472.6L425.9 471.4L426.5 470.6L427 469L427.5 468.1L428.1 467.4L428.6 465.8L429.2 464.8L429.7 463.9L430.3 461.2L430.8 458.9L431.4 458.4L431.9 458.3L432.4 454.5L433 454.3L433.5 453.8L434.1 453L434.6 452.8L435.2 451.9L435.7 450L436.3 446.5L436.8 443.3L437.4 438.8L437.9 432.9L438.4 428.5L439 426.3L439.5 420L440.1 408.4L440.6 397.4L441.2 383.7L441.7 366.2L442.3 353L442.8 344.1L443.3 332.1L443.9 305.6L444.4 283.5L445 264.2L445.5 242.6L446.1 217.1L446.6 203.2L447.2 191.8L447.7 158.4L448.3 141.2L448.8 125.3L449.3 112.5L449.9 94.8L450.4 88L451 86.8L451.5 84.1L452.1 78.9L452.6 75.7L453.2 76.6L453.7 79.8L454.2 84.8L454.8 91.9L455.3 102.5L455.9 115.4L456.4 128.4L457 141.7L457.5 157.3L458.1 167.4L458.6 178.3L459.2 194.6L459.7 217.9L460.2 237.7L460.8 255.5L461.3 276.1L461.9 285.4L462.4 294.5L463 323.9L463.5 336.2L464.1 350.7L464.6 367.6L465.2 383L465.7 389.4L466.2 394L466.8 410.7L467.3 418.6L467.9 426.8L468.4 437.2L469 444.6L469.5 447.2L470.1 450L470.6 460.7L471.1 464.1L471.7 469.2L472.2 473L472.8 476.4L473.3 478.1L473.9 479.4L474.4 483.5L475 485.3L475.5 487.5L476.1 489.5L476.6 492L477.1 493.1L477.7 494.1L478.2 493.7L478.8 497.2L479.3 498.3L479.9 499.8L480.4 501.3L481 501.9L481.5 502.3L482 502.9L482.6 504.6L483.1 505.2L483.7 505.9L484.2 506.5L484.8 506.7L485.3 506.6L485.9 507.4L486.4 507.7L487 507.7L487.5 507.9L488 508.2L488.6 508.2L489.1 508.2L489.7 509.3L490.2 509.4L490.8 508.9L491.3 508.6L491.9 508.8L492.4 508.7L492.9 508.7L493.5 509.2L494 508.8L494.6 509L495.1 509L495.7 508.5L496.2 508.4L496.8 508.1L497.3 508L497.9 507.8L498.4 507.9L498.9 506.9L499.5 506.2L500 506L500.6 505.7L501.1 505.3L501.7 504.5L502.2 503.8L502.8 503.2L503.3 502.1L503.8 501.7L504.4 501.6L504.9 500.9L505.5 499.4L506 498.1L506.6 498.2L507.1 496.7L507.7 496.3L508.2 496L508.8 494.8L509.3 494L509.8 492.2L510.4 490.9L510.9 489.8L511.5 489.6L512 489.2L512.6 487.1L513.1 485.6L513.7 483.5L514.2 481.9L514.7 480.4L515.3 480.2L515.8 479.4L516.4 477L516.9 474.6L517.5 472.7L518 471.4L518.6 469.2L519.1 468.8L519.7 468.3L520.2 467.9L520.7 466.5L521.3 465.4L521.8 464.8L522.4 463.5L522.9 463.2L523.5 463.7L524 466.5L524.6 465.4L525.1 465.6L525.6 465.6L526.2 466L526.7 465.5L527.3 465.6L527.8 466.1L528.4 465.3L528.9 465.7L529.5 466L530 466L530.6 465.9L531.1 465.8L531.6 464.3L532.2 465L532.7 464.9L533.3 465.5L533.8 466.1L534.4 466.6L534.9 466.9L535.5 468.9L536 467.5L536.6 467.9L537.1 468.1L537.6 467.4L538.2 467.2L538.7 466.9L539.3 466.7L539.8 466L540.4 465.8L540.9 465.1L541.5 463.2L542 462.7L542.5 462.2L543.1 462.5L543.6 463.2L544.2 462.7L544.7 461.9L545.3 461.8L545.8 461.3L546.4 460.7L546.9 460L547.5 458.8L548 458.5L548.5 457.4L549.1 457L549.6 456.6L550.2 456.2L550.7 453.9L551.3 453.5L551.8 452.9L552.4 451.8L552.9 450.1L553.4 450.2L554 450.3L554.5 450.6L555.1 451.3L555.6 451.1L556.2 450.8L556.7 447.7L557.3 448.5L557.8 449.2L558.4 448.5L558.9 449.3L559.4 449.6L560 450.3L560.5 452.7L561.1 453.5L561.6 454.4L562.2 454.7L562.7 456L563.3 457L563.8 457.8L564.3 462.9L564.9 463.2L565.4 463.9L566 464.8L566.5 466.2L567.1 467.4L567.6 468.2L568.2 468.9L568.7 469.1L569.3 469.3L569.8 470L570.3 470.9L570.9 471.2L571.4 471.8L572 472.7L572.5 472.7L573.1 472.5L573.6 473.4L574.2 473.8L574.7 473.8L575.2 474.2L575.8 475.4L576.3 475.5L576.9 475.7L577.4 478.1L578 478L578.5 479.6L579.1 480.7L579.6 482.1L580.2 482.4L580.7 482.6L581.2 483.5L581.8 485.9L582.3 487.2L582.9 487.5L583.4 489.3L584 489.6L584.5 489.8L585.1 488.8L585.6 491.7L586.1 492L586.7 491.5L587.2 492.7L587.8 492.9L588.3 493.1L588.9 494L589.4 494.7L590 495.2L590.5 495.6L591.1 496.2L591.6 496.4L592.1 496.7L592.7 497.2L593.2 497.7L593.8 498.5L594.3 499.4L594.9 499.9L595.4 500.1L596 500.2L596.5 500.7L597.1 500.8L597.6 501.7L598.1 502.3L598.7 502.8L599.2 503.1L599.8 503.2L600.3 503.1L600.9 503.1L601.4 505.7L602 500.9L602.5 502.7L603 503.1L603.6 503.7L604.1 504.7L604.7 506.3L605.2 498.1L605.8 501.1L606.3 502.5L606.9 502.8L607.4 503.2L608 504.6L608.5 506.3L609 495.1L609.6 503.2L610.1 503.2L610.7 503.2L611.2 503.2L611.8 503.2L612.3 503.2L612.9 502L613.4 502L613.9 502L614.5 502L615 502L615.6 502L616.1 502L616.7 501.7L617.2 501.7L617.8 501.7L618.3 501.7L618.9 501.7L619.4 501.7L619.9 501.7L620.5 501L621 501L621.6 501L622.1 501L622.7 501L623.2 501L623.8 501L624.3 499.8L624.8 499.8L625.4 499.8L625.9 499.8L626.5 499.8L627 499.8L627.6 499.8L628.1 493.1L628.7 493.1L629.2 493.1L629.8 493.1L630.3 493.1L630.8 493.1L631.4 493.1L631.9 487.1L632.5 487.1L633 487.1L633.6 487.1L634.1 487.1L634.7 487.1L635.2 487.1L635.7 485.2L636.3 485.2L636.8 485.2L637.4 485.2L637.9 485.2L638.5 485.2L639 485.2L639.6 487.5L640.1 487.5L640.7 487.5L641.2 487.5L641.7 487.5L642.3 487.5L642.8 487.5L643.4 489L643.9 489L644.5 489L645 489L645.6 489L646.1 489L646.6 489L647.2 486.7L647.7 486.7L648.3 486.7L648.8 486.7L649.4 486.7L649.9 486.7L650.5 486.7L651 493.5L651.6 493.5L652.1 493.5L652.6 493.5L653.2 493.5L653.7 493.5L654.3 493.5L654.8 499.8L655.4 499.8L655.9 499.8L656.5 499.8L657 499.8L657.6 499.8L658.1 499.8L658.6 500.8L659.2 500.8L659.7 500.8L660.3 500.8L660.8 500.8L661.4 500.8L661.9 500.8L662.5 501.5L663 501.5L663.5 501.5L664.1 501.5L664.6 501.5L665.2 501.5L665.7 501.5L666.3 502.8L666.8 502.8L667.4 502.8L667.9 502.8L668.5 502.8L669 502.8L669.5 502.8L670.1 514.4L670.6 503.2L671.2 503.2L671.7 503.2L672.3 503.2L672.8 503.2L673.4 503.2L673.9 513.8L674.4 504.3L675 504.3L675.5 504.3L676.1 504.3L676.6 504.3L677.2 504.3L677.7 504.3L678.3 508.4L678.8 508.4L679.4 508.4L679.9 508.4L680.4 508.4L681 508.4L681.5 508.4L682.1 512.6L682.6 512.6L683.2 512.6L683.7 512.6L684.3 512.6L684.8 512.6L685.3 512.6L685.9 513.3L686.4 513.3L687 513.3L687.5 513.3L688.1 513.3L688.6 513.3L689.2 513.3L689.7 511.2L690.3 511.2L690.8 511.2L691.3 511.2L691.9 511.2L692.4 511.2L693 511.2L693.5 517.6L694.1 513.3L694.6 513.3L695.2 513.3L695.7 513.3L696.2 513.3L696.8 513.3L697.3 520.6L697.9 516.3L698.4 516.3L699 516.3L699.5 516.3L700.1 516.3L700.6 516.3L701.2 516.3L701.7 516.5L702.2 516.5L702.8 516.5L703.3 516.5L703.9 516.5L704.4 516.5L705 516.5L705.5 517.2L706.1 517.2L706.6 517.2L707.1 517.2L707.7 517.2L708.2 517.2L708.8 517.2L709.3 518.1L709.9 518.1L710.4 518.1L711 518.1L711.5 518.1L712.1 518.1L712.6 518.1L713.1 517.8L713.7 517.8L714.2 517.8L714.8 517.8L715.3 517.8L715.9 517.8L716.4 517.8L717 521.1L717.5 521.1L718 521.1L718.6 521.1"></path><polyline points="88.50,522.80 89.10,522.40 89.60,522.00 90.20,521.40 90.70,520.70 91.30,519.80 91.80,519.00 92.30,518.00 92.90,517.50 93.40,516.70 94.00,515.70 94.50,514.70 95.10,513.70 95.60,512.70 96.20,512.00 96.70,511.30 97.20,510.50 97.80,509.70 98.30,509.00 98.90,508.50 99.40,508.00 100.00,508.00 100.50,507.60 101.10,507.50 101.60,507.60 102.20,507.60 102.70,507.70 103.20,507.80 103.80,507.80 104.30,507.90 104.90,508.10 105.40,508.20 106.00,508.30 106.50,508.20 107.10,508.10 107.60,508.20 108.10,508.30 108.70,508.30 109.20,508.20 109.80,508.30 110.30,508.10 110.90,508.10 111.40,508.10 112.00,508.30 112.50,508.40 113.10,508.70 113.60,508.80 114.10,509.10 114.70,509.40 115.20,509.60 115.80,509.80 116.30,509.80 116.90,510.20 117.40,510.00 118.00,510.30 118.50,510.40 119.00,510.70 119.60,510.60 120.10,510.70 120.70,510.80 121.20,510.90 121.80,511.00 122.30,511.20 122.90,511.20 123.40,511.20 124.00,511.50 124.50,511.40 125.00,511.80 125.60,511.90 126.10,512.00 126.70,511.90 127.20,512.20 127.80,512.20 128.30,512.30 128.90,512.50 129.40,512.60 129.90,512.50 130.50,512.60 131.00,512.70 131.60,512.60 132.10,512.50 132.70,512.60 133.20,512.40 133.80,512.30 134.30,512.30 134.90,512.20 135.40,512.00 135.90,511.80 136.50,511.50 137.00,511.10 137.60,510.70 138.10,510.30 138.70,509.90 139.20,509.10 139.80,508.50 140.30,507.50 140.90,506.70 141.40,506.00 141.90,505.30 142.50,504.50 143.00,503.60 143.60,502.20 144.10,501.10 144.70,499.90 145.20,499.30 145.80,498.80 146.30,497.80 146.80,497.10 147.40,495.90 147.90,495.30 148.50,494.40 149.00,493.30 149.60,492.50 150.10,491.70 150.70,491.00 151.20,490.50 151.80,489.90 152.30,489.20 152.80,488.40 153.40,487.60 153.90,487.30 154.50,487.00 155.00,486.70 155.60,486.20 156.10,486.10 156.70,486.30 157.20,486.40 157.70,486.50 158.30,486.70 158.80,487.00 159.40,487.10 159.90,487.50 160.50,488.00 161.00,488.30 161.60,488.90 162.10,489.40 162.70,490.10 163.20,490.90 163.70,491.30 164.30,491.80 164.80,492.20 165.40,492.70 165.90,492.70 166.50,493.10 167.00,493.70 167.60,494.20 168.10,494.40 168.60,494.80 169.20,495.00 169.70,495.40 170.30,495.80 170.80,496.10 171.40,496.70 171.90,497.10 172.50,497.50 173.00,497.80 173.60,498.60 174.10,498.90 174.60,499.10 175.20,499.50 175.70,499.90 176.30,500.10 176.80,500.30 177.40,500.40 177.90,500.50 178.50,500.50 179.00,500.40 179.50,500.40 180.10,500.50 180.60,501.00 181.20,501.50 181.70,502.00 182.30,502.30 182.80,502.40 183.40,502.40 183.90,502.60 184.50,502.80 185.00,502.90 185.50,502.90 186.10,502.90 186.60,503.00 187.20,503.00 187.70,503.00 188.30,502.30 188.80,501.40 189.40,501.10 189.90,500.80 190.40,500.60 191.00,500.50 191.50,500.40 192.10,500.20 192.60,500.10 193.20,500.00 193.70,500.00 194.30,499.80 194.80,499.60 195.40,499.50 195.90,499.50 196.40,499.90 197.00,499.40 197.50,499.00 198.10,498.60 198.60,498.10 199.20,497.70 199.70,497.30 200.30,496.80 200.80,496.30 201.30,495.60 201.90,494.90 202.40,494.60 203.00,494.10 203.50,493.20 204.10,492.50 204.60,491.90 205.20,491.10 205.70,490.10 206.30,489.20 206.80,488.30 207.30,487.40 207.90,486.40 208.40,485.30 209.00,484.10 209.50,482.90 210.10,481.40 210.60,477.50 211.20,476.40 211.70,474.80 212.30,472.90 212.80,470.90 213.30,468.80 213.90,466.50 214.40,464.60 215.00,462.30 215.50,459.40 216.10,456.50 216.60,453.50 217.20,450.20 217.70,447.20 218.20,447.40 218.80,444.70 219.30,441.80 219.90,439.40 220.40,436.70 221.00,434.20 221.50,432.30 222.10,430.80 222.60,429.30 223.20,428.00 223.70,426.40 224.20,427.10 224.80,427.60 225.30,428.40 225.90,428.30 226.40,428.40 227.00,427.30 227.50,425.70 228.10,424.50 228.60,423.20 229.10,421.90 229.70,420.80 230.20,419.80 230.80,417.70 231.30,416.50 231.90,413.90 232.40,410.50 233.00,407.50 233.50,405.80 234.10,403.90 234.60,403.60 235.10,402.40 235.70,401.10 236.20,400.60 236.80,400.80 237.30,400.40 237.90,400.30 238.40,401.60 239.00,401.40 239.50,401.60 240.00,405.10 240.60,408.00 241.10,409.20 241.70,410.10 242.20,409.60 242.80,409.80 243.30,410.50 243.90,410.80 244.40,409.90 245.00,409.10 245.50,409.50 246.00,407.60 246.60,406.30 247.10,403.50 247.70,398.10 248.20,393.50 248.80,390.60 249.30,389.40 249.90,389.10 250.40,389.50 250.90,389.70 251.50,389.40 252.00,390.00 252.60,390.80 253.10,391.60 253.70,395.50 254.20,398.40 254.80,401.80 255.30,406.10 255.90,409.80 256.40,413.30 256.90,416.10 257.50,419.10 258.00,421.90 258.60,424.70 259.10,427.80 259.70,430.70 260.20,433.80 260.80,434.90 261.30,436.10 261.80,439.40 262.40,442.10 262.90,444.80 263.50,447.10 264.00,449.10 264.60,451.40 265.10,453.70 265.70,456.20 266.20,458.60 266.80,461.30 267.30,463.60 267.80,465.40 268.40,468.40 268.90,471.10 269.50,472.90 270.00,475.20 270.60,477.30 271.10,479.20 271.70,480.70 272.20,481.70 272.80,482.60 273.30,483.70 273.80,484.80 274.40,485.80 274.90,486.50 275.50,487.20 276.00,487.50 276.60,487.60 277.10,487.50 277.70,487.60 278.20,488.00 278.70,488.40 279.30,488.90 279.80,489.40 280.40,490.10 280.90,490.60 281.50,491.10 282.00,491.40 282.60,492.10 283.10,492.30 283.70,492.60 284.20,492.70 284.70,493.00 285.30,493.10 285.80,493.20 286.40,493.10 286.90,493.10 287.50,492.80 288.00,492.70 288.60,492.40 289.10,492.20 289.60,491.70 290.20,491.30 290.70,491.00 291.30,490.40 291.80,490.00 292.40,489.60 292.90,489.20 293.50,488.80 294.00,488.60 294.60,488.60 295.10,488.20 295.60,488.00 296.20,487.70 296.70,487.30 297.30,487.20 297.80,487.00 298.40,487.00 298.90,486.90 299.50,486.50 300.00,486.40 300.50,486.50 301.10,486.50 301.60,485.90 302.20,485.80 302.70,486.70 303.30,486.90 303.80,487.40 304.40,488.00 304.90,488.60 305.50,489.30 306.00,489.80 306.50,491.00 307.10,492.00 307.60,492.60 308.20,493.30 308.70,493.90 309.30,495.10 309.80,495.70 310.40,495.80 310.90,496.40 311.40,497.20 312.00,497.90 312.50,498.70 313.10,499.30 313.60,499.80 314.20,500.10 314.70,500.80 315.30,501.60 315.80,502.20 316.40,503.10 316.90,503.80 317.40,504.50 318.00,505.00 318.50,505.60 319.10,506.40 319.60,507.00 320.20,507.70 320.70,508.30 321.30,508.80 321.80,509.20 322.30,509.50 322.90,510.00 323.40,510.80 324.00,511.20 324.50,511.80 325.10,512.20 325.60,512.60 326.20,513.40 326.70,513.90 327.30,514.30 327.80,514.70 328.30,515.00 328.90,515.20 329.40,515.40 330.00,515.80 330.50,516.00 331.10,516.20 331.60,516.70 332.20,516.80 332.70,517.00 333.30,517.00 333.80,516.90 334.30,517.00 334.90,517.20 335.40,517.40 336.00,517.50 336.50,517.60 337.10,517.70 337.60,517.70 338.20,518.00 338.70,518.00 339.20,517.90 339.80,517.90 340.30,517.80 340.90,517.70 341.40,517.60 342.00,517.70 342.50,517.50 343.10,517.30 343.60,517.20 344.20,517.20 344.70,517.10 345.20,516.90 345.80,516.50 346.30,509.50 346.90,509.00 347.40,508.70 348.00,508.40 348.50,507.60 349.10,506.80 349.60,505.70 350.10,504.80 350.70,503.70 351.20,503.00 351.80,502.20 352.30,500.70 352.90,499.40 353.40,497.80 354.00,502.50 354.50,500.70 355.10,499.40 355.60,498.30 356.10,496.50 356.70,494.40 357.20,492.30 357.80,489.80 358.30,487.20 358.90,485.20 359.40,483.80 360.00,481.40 360.50,479.00 361.00,476.20 361.60,473.90 362.10,471.20 362.70,468.50 363.20,466.20 363.80,465.30 364.30,463.30 364.90,461.00 365.40,458.80 366.00,457.10 366.50,454.60 367.00,452.60 367.60,452.30 368.10,450.60 368.70,448.90 369.20,447.00 369.80,445.60 370.30,444.70 370.90,443.50 371.40,442.40 371.90,441.20 372.50,439.90 373.00,438.40 373.60,436.90 374.10,436.50 374.70,436.30 375.20,435.00 375.80,433.90 376.30,432.70 376.90,432.30 377.40,431.70 377.90,431.70 378.50,431.80 379.00,432.00 379.60,434.00 380.10,434.20 380.70,434.30 381.20,434.70 381.80,434.60 382.30,434.70 382.80,435.50 383.40,436.10 383.90,437.50 384.50,438.20 385.00,439.20 385.60,440.00 386.10,441.20 386.70,441.90 387.20,441.10 387.80,442.70 388.30,444.60 388.80,446.30 389.40,448.70 389.90,450.30 390.50,450.80 391.00,452.70 391.60,454.60 392.10,456.40 392.70,458.00 393.20,459.70 393.70,460.90 394.30,461.10 394.80,462.40 395.40,463.00 395.90,464.10 396.50,465.10 397.00,466.20 397.60,466.90 398.10,468.10 398.70,469.20 399.20,470.00 399.70,471.10 400.30,472.30 400.80,473.10 401.40,473.90 401.90,474.70 402.50,475.60 403.00,477.30 403.60,478.40 404.10,479.50 404.70,481.00 405.20,482.20 405.70,482.00 406.30,481.50 406.80,482.00 407.40,481.70 407.90,481.90 408.50,483.00 409.00,484.00 409.60,482.10 410.10,482.30 410.60,482.20 411.20,482.20 411.70,481.80 412.30,481.80 412.80,481.70 413.40,480.30 413.90,481.10 414.50,480.70 415.00,481.90 415.60,480.50 416.10,479.10 416.60,478.70 417.20,478.10 417.70,477.10 418.30,476.00 418.80,474.60 419.40,473.60 419.90,473.10 420.50,472.80 421.00,471.60 421.50,470.90 422.10,470.30 422.60,470.40 423.20,472.10 423.70,472.80 424.30,471.90 424.80,473.50 425.40,472.60 425.90,471.40 426.50,470.60 427.00,469.00 427.50,468.10 428.10,467.40 428.60,465.80 429.20,464.80 429.70,463.90 430.30,461.20 430.80,458.90 431.40,458.40 431.90,458.30 432.40,454.50 433.00,454.30 433.50,453.80 434.10,453.00 434.60,452.80 435.20,451.90 435.70,450.00 436.30,446.50 436.80,443.30 437.40,438.80 437.90,432.90 438.40,428.50 439.00,426.30 439.50,420.00 440.10,408.40 440.60,397.40 441.20,383.70 441.70,366.20 442.30,353.00 442.80,344.10 443.30,332.10 443.90,305.60 444.40,283.50 445.00,264.20 445.50,242.60 446.10,217.10 446.60,203.20 447.20,191.80 447.70,158.40 448.30,141.20 448.80,125.30 449.30,112.50 449.90,94.80 450.40,88.00 451.00,86.80 451.50,84.10 452.10,78.90 452.60,75.70 453.20,76.60 453.70,79.80 454.20,84.80 454.80,91.90 455.30,102.50 455.90,115.40 456.40,128.40 457.00,141.70 457.50,157.30 458.10,167.40 458.60,178.30 459.20,194.60 459.70,217.90 460.20,237.70 460.80,255.50 461.30,276.10 461.90,285.40 462.40,294.50 463.00,323.90 463.50,336.20 464.10,350.70 464.60,367.60 465.20,383.00 465.70,389.40 466.20,394.00 466.80,410.70 467.30,418.60 467.90,426.80 468.40,437.20 469.00,444.60 469.50,447.20 470.10,450.00 470.60,460.70 471.10,464.10 471.70,469.20 472.20,473.00 472.80,476.40 473.30,478.10 473.90,479.40 474.40,483.50 475.00,485.30 475.50,487.50 476.10,489.50 476.60,492.00 477.10,493.10 477.70,494.10 478.20,493.70 478.80,497.20 479.30,498.30 479.90,499.80 480.40,501.30 481.00,501.90 481.50,502.30 482.00,502.90 482.60,504.60 483.10,505.20 483.70,505.90 484.20,506.50 484.80,506.70 485.30,506.60 485.90,507.40 486.40,507.70 487.00,507.70 487.50,507.90 488.00,508.20 488.60,508.20 489.10,508.20 489.70,509.30 490.20,509.40 490.80,508.90 491.30,508.60 491.90,508.80 492.40,508.70 492.90,508.70 493.50,509.20 494.00,508.80 494.60,509.00 495.10,509.00 495.70,508.50 496.20,508.40 496.80,508.10 497.30,508.00 497.90,507.80 498.40,507.90 498.90,506.90 499.50,506.20 500.00,506.00 500.60,505.70 501.10,505.30 501.70,504.50 502.20,503.80 502.80,503.20 503.30,502.10 503.80,501.70 504.40,501.60 504.90,500.90 505.50,499.40 506.00,498.10 506.60,498.20 507.10,496.70 507.70,496.30 508.20,496.00 508.80,494.80 509.30,494.00 509.80,492.20 510.40,490.90 510.90,489.80 511.50,489.60 512.00,489.20 512.60,487.10 513.10,485.60 513.70,483.50 514.20,481.90 514.70,480.40 515.30,480.20 515.80,479.40 516.40,477.00 516.90,474.60 517.50,472.70 518.00,471.40 518.60,469.20 519.10,468.80 519.70,468.30 520.20,467.90 520.70,466.50 521.30,465.40 521.80,464.80 522.40,463.50 522.90,463.20 523.50,463.70 524.00,466.50 524.60,465.40 525.10,465.60 525.60,465.60 526.20,466.00 526.70,465.50 527.30,465.60 527.80,466.10 528.40,465.30 528.90,465.70 529.50,466.00 530.00,466.00 530.60,465.90 531.10,465.80 531.60,464.30 532.20,465.00 532.70,464.90 533.30,465.50 533.80,466.10 534.40,466.60 534.90,466.90 535.50,468.90 536.00,467.50 536.60,467.90 537.10,468.10 537.60,467.40 538.20,467.20 538.70,466.90 539.30,466.70 539.80,466.00 540.40,465.80 540.90,465.10 541.50,463.20 542.00,462.70 542.50,462.20 543.10,462.50 543.60,463.20 544.20,462.70 544.70,461.90 545.30,461.80 545.80,461.30 546.40,460.70 546.90,460.00 547.50,458.80 548.00,458.50 548.50,457.40 549.10,457.00 549.60,456.60 550.20,456.20 550.70,453.90 551.30,453.50 551.80,452.90 552.40,451.80 552.90,450.10 553.40,450.20 554.00,450.30 554.50,450.60 555.10,451.30 555.60,451.10 556.20,450.80 556.70,447.70 557.30,448.50 557.80,449.20 558.40,448.50 558.90,449.30 559.40,449.60 560.00,450.30 560.50,452.70 561.10,453.50 561.60,454.40 562.20,454.70 562.70,456.00 563.30,457.00 563.80,457.80 564.30,462.90 564.90,463.20 565.40,463.90 566.00,464.80 566.50,466.20 567.10,467.40 567.60,468.20 568.20,468.90 568.70,469.10 569.30,469.30 569.80,470.00 570.30,470.90 570.90,471.20 571.40,471.80 572.00,472.70 572.50,472.70 573.10,472.50 573.60,473.40 574.20,473.80 574.70,473.80 575.20,474.20 575.80,475.40 576.30,475.50 576.90,475.70 577.40,478.10 578.00,478.00 578.50,479.60 579.10,480.70 579.60,482.10 580.20,482.40 580.70,482.60 581.20,483.50 581.80,485.90 582.30,487.20 582.90,487.50 583.40,489.30 584.00,489.60 584.50,489.80 585.10,488.80 585.60,491.70 586.10,492.00 586.70,491.50 587.20,492.70 587.80,492.90 588.30,493.10 588.90,494.00 589.40,494.70 590.00,495.20 590.50,495.60 591.10,496.20 591.60,496.40 592.10,496.70 592.70,497.20 593.20,497.70 593.80,498.50 594.30,499.40 594.90,499.90 595.40,500.10 596.00,500.20 596.50,500.70 597.10,500.80 597.60,501.70 598.10,502.30 598.70,502.80 599.20,503.10 599.80,503.20 600.30,503.10 600.90,503.10 601.40,505.70 602.00,500.90 602.50,502.70 603.00,503.10 603.60,503.70 604.10,504.70 604.70,506.30 605.20,498.10 605.80,501.10 606.30,502.50 606.90,502.80 607.40,503.20 608.00,504.60 608.50,506.30 609.00,495.10 609.60,503.20 610.10,503.20 610.70,503.20 611.20,503.20 611.80,503.20 612.30,503.20 612.90,502.00 613.40,502.00 613.90,502.00 614.50,502.00 615.00,502.00 615.60,502.00 616.10,502.00 616.70,501.70 617.20,501.70 617.80,501.70 618.30,501.70 618.90,501.70 619.40,501.70 619.90,501.70 620.50,501.00 621.00,501.00 621.60,501.00 622.10,501.00 622.70,501.00 623.20,501.00 623.80,501.00 624.30,499.80 624.80,499.80 625.40,499.80 625.90,499.80 626.50,499.80 627.00,499.80 627.60,499.80 628.10,493.10 628.70,493.10 629.20,493.10 629.80,493.10 630.30,493.10 630.80,493.10 631.40,493.10 631.90,487.10 632.50,487.10 633.00,487.10 633.60,487.10 634.10,487.10 634.70,487.10 635.20,487.10 635.70,485.20 636.30,485.20 636.80,485.20 637.40,485.20 637.90,485.20 638.50,485.20 639.00,485.20 639.60,487.50 640.10,487.50 640.70,487.50 641.20,487.50 641.70,487.50 642.30,487.50 642.80,487.50 643.40,489.00 643.90,489.00 644.50,489.00 645.00,489.00 645.60,489.00 646.10,489.00 646.60,489.00 647.20,486.70 647.70,486.70 648.30,486.70 648.80,486.70 649.40,486.70 649.90,486.70 650.50,486.70 651.00,493.50 651.60,493.50 652.10,493.50 652.60,493.50 653.20,493.50 653.70,493.50 654.30,493.50 654.80,499.80 655.40,499.80 655.90,499.80 656.50,499.80 657.00,499.80 657.60,499.80 658.10,499.80 658.60,500.80 659.20,500.80 659.70,500.80 660.30,500.80 660.80,500.80 661.40,500.80 661.90,500.80 662.50,501.50 663.00,501.50 663.50,501.50 664.10,501.50 664.60,501.50 665.20,501.50 665.70,501.50 666.30,502.80 666.80,502.80 667.40,502.80 667.90,502.80 668.50,502.80 669.00,502.80 669.50,502.80 670.10,514.40 670.60,503.20 671.20,503.20 671.70,503.20 672.30,503.20 672.80,503.20 673.40,503.20 673.90,513.80 674.40,504.30 675.00,504.30 675.50,504.30 676.10,504.30 676.60,504.30 677.20,504.30 677.70,504.30 678.30,508.40 678.80,508.40 679.40,508.40 679.90,508.40 680.40,508.40 681.00,508.40 681.50,508.40 682.10,512.60 682.60,512.60 683.20,512.60 683.70,512.60 684.30,512.60 684.80,512.60 685.30,512.60 685.90,513.30 686.40,513.30 687.00,513.30 687.50,513.30 688.10,513.30 688.60,513.30 689.20,513.30 689.70,511.20 690.30,511.20 690.80,511.20 691.30,511.20 691.90,511.20 692.40,511.20 693.00,511.20 693.50,517.60 694.10,513.30 694.60,513.30 695.20,513.30 695.70,513.30 696.20,513.30 696.80,513.30 697.30,520.60 697.90,516.30 698.40,516.30 699.00,516.30 699.50,516.30 700.10,516.30 700.60,516.30 701.20,516.30 701.70,516.50 702.20,516.50 702.80,516.50 703.30,516.50 703.90,516.50 704.40,516.50 705.00,516.50 705.50,517.20 706.10,517.20 706.60,517.20 707.10,517.20 707.70,517.20 708.20,517.20 708.80,517.20 709.30,518.10 709.90,518.10 710.40,518.10 711.00,518.10 711.50,518.10 712.10,518.10 712.60,518.10 713.10,517.80 713.70,517.80 714.20,517.80 714.80,517.80 715.30,517.80 715.90,517.80 716.40,517.80 717.00,521.10 717.50,521.10 718.00,521.10 718.60,521.10" stroke-linejoin="round" stroke-width="1.5" stroke="#C15065" fill="none" stroke-linecap="butt"></polyline></g></g></g></g><g class="SourcesFooter" style="fill:#777"><g style="fill:#777"><text font-size="12.60" x="15.0" y="582.7"><tspan x="15" y="582.732">Source: WHO COVID-19 Dashboard</tspan></text></g><text font-size="12.60" x="601.3" y="582.7"><tspan x="601.27" y="582.732"><a target='_blank' style='fill: #777;' href='https://ourworldindata.org/coronavirus'>OurWorldInData.org/coronavirus</a>  <a style="fill: #777;" class="cclogo" href="http://creativecommons.org/licenses/by/4.0/deed.en_US" target="_blank">CC BY</a></tspan></text></g><line x1="15" y1="600" x2="835" y2="600" stroke="#777"></line><g style="transform:translate(15px, 615px)"></g></svg>